<svg width="44" height="44" viewBox="0 0 44 44" fill="none" xmlns="http://www.w3.org/2000/svg">
<path d="M20.1667 7.33301H7.33341C6.36095 7.33301 5.42832 7.71932 4.74069 8.40695C4.05306 9.09458 3.66675 10.0272 3.66675 10.9997V36.6663C3.66675 37.6388 4.05306 38.5714 4.74069 39.2591C5.42832 39.9467 6.36095 40.333 7.33341 40.333H33.0001C33.9725 40.333 34.9052 39.9467 35.5928 39.2591C36.2804 38.5714 36.6667 37.6388 36.6667 36.6663V23.833" stroke="white" stroke-width="3.66667" stroke-linecap="round" stroke-linejoin="round"/>
<path d="M33.9167 4.58342C34.6461 3.85408 35.6353 3.44434 36.6667 3.44434C37.6982 3.44434 38.6874 3.85408 39.4167 4.58342C40.1461 5.31277 40.5558 6.30197 40.5558 7.33342C40.5558 8.36487 40.1461 9.35408 39.4167 10.0834L22.0001 27.5001L14.6667 29.3334L16.5001 22.0001L33.9167 4.58342Z" stroke="white" stroke-width="3.66667" stroke-linecap="round" stroke-linejoin="round"/>
</svg>
