<svg width="83" height="83" viewBox="0 0 83 83" fill="none" xmlns="http://www.w3.org/2000/svg">
<circle cx="41.5" cy="41.5" r="41.5" fill="url(#paint0_linear)"/>
<path d="M59.5148 27.9337H23.2877C22.4675 27.9337 21.8027 28.5985 21.8027 29.4187V31.6764V53.6173C21.8027 54.4375 22.4675 55.1023 23.2877 55.1023H59.5148C60.335 55.1023 60.9998 54.4375 60.9998 53.6173V31.6764V29.4187C60.9997 28.5985 60.335 27.9337 59.5148 27.9337Z" fill="#CCCCCC"/>
<path d="M21 30.6405V52.5814C21 53.4016 21.6648 54.0664 22.485 54.0664H58.7121C59.5323 54.0664 60.1971 53.4016 60.1971 52.5814V30.6405H21ZM32.9456 52.0805H22.9858V38.9668H32.9456V52.0805ZM58.2113 52.0805H35.3V38.9668H58.2113V52.0805ZM58.2113 36.9103H22.9858V32.6037H58.2113V36.9103Z" fill="#E6E6E6"/>
<path d="M60.1971 28.3828V30.6405H21V28.3828C21 27.5626 21.6648 26.8978 22.485 26.8978H58.7121C59.5323 26.8978 60.1971 27.5626 60.1971 28.3828Z" fill="#88C5FC"/>
<path d="M58.2116 38.9669H35.3003V52.0807H58.2116V38.9669Z" fill="#F9A18A"/>
<path d="M58.2114 32.6038H22.9858V36.9103H58.2114V32.6038Z" fill="#B3B3B3"/>
<path d="M32.9457 38.9669H22.9858V52.0807H32.9457V38.9669Z" fill="#B3B3B3"/>
<path d="M43.4473 29.4168H27.2159C26.8583 29.4168 26.5684 29.1268 26.5684 28.7692C26.5684 28.4116 26.8583 28.1217 27.2159 28.1217H43.4473C43.8049 28.1217 44.0948 28.4116 44.0948 28.7692C44.0948 29.1268 43.8049 29.4168 43.4473 29.4168Z" fill="#F2F2F2"/>
<path d="M25.0577 29.4171C24.8867 29.4171 24.7201 29.3472 24.5992 29.2272C24.4792 29.1063 24.4102 28.9397 24.4102 28.7687C24.4102 28.5987 24.4792 28.432 24.5992 28.3111C24.7201 28.1911 24.8867 28.1221 25.0577 28.1221C25.2278 28.1221 25.3944 28.1911 25.5153 28.3111C25.6361 28.432 25.7052 28.5987 25.7052 28.7687C25.7052 28.9397 25.6361 29.1063 25.5153 29.2272C25.3944 29.3472 25.2278 29.4171 25.0577 29.4171Z" fill="#4D4D4D"/>
<path d="M22.9859 29.4163C22.815 29.4163 22.6483 29.3472 22.5275 29.2272C22.4074 29.1063 22.3384 28.9397 22.3384 28.7687C22.3384 28.5987 22.4074 28.432 22.5275 28.3112C22.6483 28.1903 22.815 28.1212 22.9859 28.1212C23.156 28.1212 23.3226 28.1903 23.4435 28.3112C23.5644 28.432 23.6334 28.5987 23.6334 28.7687C23.6334 28.9397 23.5644 29.1063 23.4435 29.2272C23.3226 29.3472 23.156 29.4163 22.9859 29.4163Z" fill="#F9A18A"/>
<path d="M31.1444 40.8713H24.7871V42.1664H31.1444V40.8713Z" fill="#4D4D4D"/>
<path d="M31.1444 43.4614H24.7871V44.7565H31.1444V43.4614Z" fill="#4D4D4D"/>
<path d="M31.1444 46.0516H24.7871V47.3467H31.1444V46.0516Z" fill="#4D4D4D"/>
<path d="M31.1444 48.6417H24.7871V49.9368H31.1444V48.6417Z" fill="#4D4D4D"/>
<path opacity="0.23" d="M60.1973 28.3828V52.5814C60.1973 53.4016 59.5325 54.0664 58.7123 54.0664H37.8262L51.9639 26.8978H58.7123C59.5325 26.8978 60.1973 27.5626 60.1973 28.3828Z" fill="#F2F2F2"/>
<path opacity="0.23" d="M31.3328 26.8978L29.3851 30.6405L28.3637 32.6038L26.1224 36.9103L25.0527 38.9668L22.9858 42.9383L21 46.7544V28.3828C21 27.5626 21.6648 26.8978 22.485 26.8978H31.3328V26.8978Z" fill="#F2F2F2"/>
<defs>
<linearGradient id="paint0_linear" x1="8.5" y1="18.5" x2="70.5" y2="68" gradientUnits="userSpaceOnUse">
<stop stop-color="#E1A1ED"/>
<stop offset="1" stop-color="#7658F4"/>
</linearGradient>
</defs>
</svg>
