<svg width="83" height="83" viewBox="0 0 83 83" fill="none" xmlns="http://www.w3.org/2000/svg">
<circle cx="41.5" cy="41.5" r="41.5" fill="url(#paint0_linear)"/>
<g clip-path="url(#clip0)">
<path d="M58.7114 22.1423H24.4307V26.0615H58.7114V22.1423Z" fill="#F2F2F2"/>
<path d="M45.9076 52.1459H37.2344V61H45.9076V52.1459Z" fill="#F2F2F2"/>
<path d="M33.1049 29.1182H24.4307V35.3906H33.1049V29.1182Z" fill="#F2F2F2"/>
<path d="M58.7113 29.1182H50.0381V37.1041H58.7113V29.1182Z" fill="#F2F2F2"/>
<path d="M58.7113 40.4349H50.0381V61H58.7113V40.4349Z" fill="#F2F2F2"/>
<path d="M45.9076 29.1182H37.2344V48.8141H45.9076V29.1182Z" fill="#F2F2F2"/>
<path d="M33.1049 38.7214H24.4307V61H33.1049V38.7214Z" fill="#F2F2F2"/>
<path d="M57.5693 21H23.2886V24.9192H57.5693V21Z" fill="#F7E88B"/>
<path d="M44.7655 51.0037H36.0923V59.8578H44.7655V51.0037Z" fill="#F9A18A"/>
<path d="M31.9628 27.976H23.2886V34.2484H31.9628V27.976Z" fill="#F9A18A"/>
<path d="M57.5692 27.976H48.896V35.9619H57.5692V27.976Z" fill="#F9A18A"/>
<path d="M57.5692 39.2927H48.896V59.8578H57.5692V39.2927Z" fill="#88C5FC"/>
<path d="M44.7655 27.976H36.0923V47.6719H44.7655V27.976Z" fill="#88C5FC"/>
<path d="M31.9628 37.5792H23.2886V59.8578H31.9628V37.5792Z" fill="#88C5FC"/>
<path d="M27.6257 30.2311L24.5071 27.976H23.2886V28.8565L26.4072 31.1117L23.2886 33.3669V34.2484H24.5071L27.6257 31.9932L30.7443 34.2484H31.9628V33.3669L28.8442 31.1117L31.9628 28.8565V27.976H30.7443L27.6257 30.2311Z" fill="#DB7D6A"/>
<path d="M40.4294 54.4097L37.0918 51.0037H36.0923V52.0242L39.4298 55.4302L36.0923 58.8363V59.8578H37.0909L40.4294 56.4507L43.7669 59.8578H44.7655V58.8363L41.4289 55.4302L44.7655 52.0242V51.0037H43.766L40.4294 54.4097Z" fill="#DB7D6A"/>
<path d="M57.5692 27.976H56.5154L53.2321 30.9984L49.9498 27.976H48.896V28.9469L52.1783 31.9684L48.896 34.9909V35.9619H49.9498L53.2321 32.9394L56.5154 35.9619H57.5692V34.9909L54.2869 31.9684L57.5692 28.9469V27.976Z" fill="#DB7D6A"/>
<path opacity="0.23" d="M32.1493 21L32.1179 21.06L30.9918 23.2247L30.1103 24.9192H23.2886V21H32.1493Z" fill="#F2F2F2"/>
<path opacity="0.23" d="M57.5693 21V24.9192H45.5566L47.5957 21H57.5693Z" fill="#F2F2F2"/>
<path opacity="0.23" d="M52.5582 39.2927L52.5353 39.3365L51.4092 41.5013L48.9379 46.2496L48.896 46.3305V39.2927H52.5582Z" fill="#F2F2F2"/>
<path opacity="0.23" d="M57.5695 45.8965V59.8578H50.3042L57.5695 45.8965Z" fill="#F2F2F2"/>
<path opacity="0.23" d="M39.3023 27.976L38.6054 29.3153L36.1342 34.0637L36.0923 34.1446V27.976H39.3023Z" fill="#F2F2F2"/>
<path opacity="0.23" d="M44.7653 33.7106V47.6719H37.5L44.7653 33.7106Z" fill="#F2F2F2"/>
<path opacity="0.23" d="M26.945 37.5792L25.994 39.407L23.5228 44.1553L23.2886 44.6056V37.5792H26.945Z" fill="#F2F2F2"/>
<path opacity="0.23" d="M31.9628 44.1705V59.8578H23.7998L31.9628 44.1705Z" fill="#F2F2F2"/>
<path opacity="0.23" d="M39.0548 51.0037L38.7635 51.5634L36.4845 55.9424L36.0923 56.6963V51.0037H39.0548Z" fill="#F2F2F2"/>
<path opacity="0.23" d="M44.7653 51.0483V59.8577H40.1816L44.7653 51.0483Z" fill="#F2F2F2"/>
<path opacity="0.23" d="M51.4063 27.976L49.2882 32.0465L48.896 32.8004V27.976H51.4063Z" fill="#F2F2F2"/>
<path opacity="0.23" d="M57.5695 27.976V35.9619H52.9858L57.1411 27.976H57.5695Z" fill="#F2F2F2"/>
<path opacity="0.23" d="M24.9079 27.976L23.6818 30.333L23.2896 31.0869V27.976H24.9079Z" fill="#F2F2F2"/>
<path opacity="0.23" d="M31.963 27.976V34.2484H27.3794L30.6427 27.976H31.963Z" fill="#F2F2F2"/>
</g>
<defs>
<linearGradient id="paint0_linear" x1="12" y1="13.5" x2="61.5" y2="72.5" gradientUnits="userSpaceOnUse">
<stop stop-color="#F1A7D3"/>
<stop offset="1" stop-color="#ED279E"/>
</linearGradient>
<clipPath id="clip0">
<rect width="40" height="40" fill="white" transform="translate(21 21)"/>
</clipPath>
</defs>
</svg>
