<svg width="83" height="83" viewBox="0 0 83 83" fill="none" xmlns="http://www.w3.org/2000/svg">
<circle cx="41.5" cy="41.5" r="41.5" fill="url(#paint0_linear)"/>
<g clip-path="url(#clip0)">
<path d="M61 55.5591C61 57.3864 59.5186 58.8678 57.6913 58.8678H24.3087C23.3946 58.8678 22.5679 58.4972 21.9688 57.899C21.3706 57.2999 21 56.4732 21 55.5591H61Z" fill="#70B1E0"/>
<path d="M36.7891 29.3524V46.0274H60.7432V29.3524H36.7891ZM58.7138 43.9981H38.8184V31.3818H58.7138V43.9981Z" fill="#B3B3B3"/>
<path d="M58.714 42.7885V43.9981H44.7222L47.318 40.8606L52.2184 34.9385L58.714 42.7885Z" fill="#F7E88B"/>
<path d="M58.7138 31.3818V42.7885L52.2182 34.9385L47.3178 40.8606L43.8149 36.6272L38.8184 42.6658V31.3818H58.7138ZM48.8318 34.7779C48.8318 33.9741 48.1807 33.3221 47.376 33.3221C46.5722 33.3221 45.921 33.9741 45.921 34.7779C45.921 35.5826 46.5722 36.2337 47.376 36.2337C48.1807 36.2337 48.8318 35.5826 48.8318 34.7779Z" fill="#AFDAF9"/>
<path d="M58.6046 46.0275V55.5592H23.3965V50.5273V50.5264H25.4258V50.5273V53.5298H56.5753V46.0275H58.6046Z" fill="#88C5FC"/>
<path d="M56.5752 46.0274V53.5298H25.4258V50.5263H33.5467V43.0857H25.4258V39.807H33.5467V35.8816H36.7892V46.0274H56.5752Z" fill="#4D4D4D"/>
<path d="M47.3758 33.322C48.1805 33.322 48.8317 33.9741 48.8317 34.7779C48.8317 35.5825 48.1805 36.2337 47.3758 36.2337C46.572 36.2337 45.9209 35.5825 45.9209 34.7779C45.9209 33.9741 46.572 33.322 47.3758 33.322Z" fill="#F9DD53"/>
<path d="M43.8149 36.6272L47.3178 40.8606L44.722 43.9981H38.8184V42.6658L43.8149 36.6272Z" fill="#DDCA6C"/>
<path d="M36.7889 33.8523H33.5464V35.8816H36.7889V33.8523Z" fill="#88C5FC"/>
<path d="M33.5464 43.0858H21.5698V50.5264H33.5464V43.0858Z" fill="#F9A18A"/>
<path d="M33.5464 23.1321H21.5698V39.8071H33.5464V23.1321Z" fill="#E6E6E6"/>
<path d="M25.4258 39.807H23.3965V43.0857H25.4258V39.807Z" fill="#88C5FC"/>
<path d="M30.8068 26.8374H24.3101V28.1609H30.8068V26.8374Z" fill="#4D4D4D"/>
<path d="M30.8068 29.4844H24.3101V30.8079H30.8068V29.4844Z" fill="#4D4D4D"/>
<path d="M30.8068 32.1313H24.3101V33.4548H30.8068V32.1313Z" fill="#4D4D4D"/>
<path d="M30.8068 34.7783H24.3101V36.1018H30.8068V34.7783Z" fill="#4D4D4D"/>
<path d="M33.5464 49.7473V50.5264H32.2927L27.5581 47.5848L26.3044 46.8066L21.5698 43.8649V43.0858H22.8245L27.5581 46.0275L28.8119 46.8066L33.5464 49.7473Z" fill="#DB7D6A"/>
<path d="M33.5464 43.0858V43.8649L28.8119 46.8066L27.5581 47.5848L22.8245 50.5264H21.5698V49.7473L26.3044 46.8066L27.5581 46.0275L32.2927 43.0858H33.5464Z" fill="#DB7D6A"/>
<path opacity="0.23" d="M60.7434 29.3524V46.0274H49.4858L50.5411 43.9981L57.1064 31.3818L58.1626 29.3524H60.7434Z" fill="#F2F2F2"/>
<path opacity="0.23" d="M43.5635 29.3524L43.2176 30.0168L42.5074 31.3818L42.1739 32.0232L39.8834 36.4242L38.8184 38.4712L38.7902 38.5259L36.7891 42.3711V29.3524H43.5635Z" fill="#F2F2F2"/>
<path opacity="0.23" d="M29.7366 23.1321L29.3219 23.9288L28.2781 25.9352L25.9876 30.3362L24.8944 32.4379L22.7821 36.4966L21.5698 38.8259V23.1321H29.7366Z" fill="#F2F2F2"/>
<path opacity="0.23" d="M27.9887 43.0858L27.6164 43.8014L25.3259 48.2024L24.2327 50.3041L24.1171 50.5264H21.5698V43.0858H27.9887Z" fill="#F2F2F2"/>
<path opacity="0.23" d="M56.5753 47.792V53.5297H37.2349L40.2206 47.792H56.5753Z" fill="#F2F2F2"/>
<path opacity="0.23" d="M30.3306 40.7776L29.428 42.5113L29.1289 43.0857H25.4258V40.7776H30.3306Z" fill="#F2F2F2"/>
<path opacity="0.23" d="M61.0002 55.5591C61.0002 56.5535 60.5608 57.4464 59.8664 58.0525H49.1392L50.4362 55.5591H61.0002Z" fill="#F2F2F2"/>
</g>
<defs>
<linearGradient id="paint0_linear" x1="10.5" y1="11.5" x2="72.5" y2="66" gradientUnits="userSpaceOnUse">
<stop stop-color="#93FD94"/>
<stop offset="1" stop-color="#21C4C0"/>
</linearGradient>
<clipPath id="clip0">
<rect width="40" height="40" fill="white" transform="translate(21 21)"/>
</clipPath>
</defs>
</svg>
