<svg width="365" height="253" viewBox="0 0 365 253" fill="none" xmlns="http://www.w3.org/2000/svg">
<g clip-path="url(#clip0)">
<path d="M52.8721 131.781H66.2312C66.2312 131.781 70.3873 132.374 70.6842 135.343C70.9811 138.312 70.5951 176.934 70.5951 176.934L97.4024 176.608C97.4024 176.608 100.074 177.498 100.074 180.467C100.074 183.436 97.9961 184.623 97.9961 184.623L57.2657 184.445L52.8721 131.781Z" fill="#BAC6F2"/>
<path d="M52.8721 131.781C52.8721 131.781 49.0128 132.374 48.7159 138.312C48.4191 144.249 48.7159 184.326 48.7159 184.326L89.4166 184.623C90.0104 184.623 90.5744 184.386 90.9603 183.94C91.5541 183.287 92.3556 182.278 92.3556 181.358C92.3556 179.755 91.7619 177.201 88.4963 177.201C85.2308 177.201 57.622 176.905 57.622 176.905L57.0282 135.343C57.0282 135.373 57.0282 132.374 52.8721 131.781Z" fill="#B1C1F2"/>
<path d="M69.9122 184.534C69.9122 184.534 69.1997 187.889 71.5747 187.889H75.434C75.7308 187.889 77.0074 186.108 76.2058 184.623C75.4043 183.139 69.9122 184.534 69.9122 184.534Z" fill="#BAC6F2"/>
<path d="M71.5747 187.918L71.8716 221.435H74.5434L74.6918 187.71L71.5747 187.918Z" fill="#E9EDFA"/>
<path d="M60.5908 220.842L86.1215 221.138V223.513L60.5908 223.217V220.842Z" fill="#E9EDFA"/>
<path d="M111.059 223.809L109.871 161.764H116.105L115.808 223.809H111.059Z" fill="white"/>
<path d="M246.728 162.061H253.556L251.181 224.106L246.728 224.403V162.061Z" fill="white"/>
<path d="M105.121 151.076L105.418 161.169L256.524 162.06L256.702 150.779L105.121 151.076Z" fill="#E9EDFA"/>
<path d="M95.9185 145.436L265.727 146.03V151.671L96.2153 151.374L95.9185 145.436Z" fill="#BAC6F2"/>
<path d="M303.637 198.218L303.934 223.452L337.777 222.858V198.218H303.637Z" fill="#E9EDFA"/>
<path d="M330.355 222.977L330.385 198.218H328.218" fill="white"/>
<path d="M312.424 198.159C312.424 198.159 311.623 183.197 318.688 178.952C325.754 174.706 319.698 164.791 321.123 159.536C322.548 154.282 329.197 150.423 329.197 146.385C329.197 142.348 328.604 131.007 336.263 127.593C343.922 124.179 350.008 128.603 347.603 135.282C345.199 141.962 343.358 149.651 340.716 152.055C338.074 154.46 339.113 158.319 339.499 162.98C339.885 167.641 336.263 175.3 334.244 178.15C332.226 181 334.244 185.839 333.65 190.886C333.65 190.886 332.552 197.951 331.424 198.189C330.296 198.426 312.424 198.159 312.424 198.159Z" fill="#BAC6F2"/>
<path d="M328.218 198.634C328.218 198.634 329.109 191.509 321.212 189.491C313.315 187.472 320.084 182.752 318.51 180.258C316.937 177.764 309.486 175.924 309.486 174.024C309.486 172.124 310.168 166.721 301.589 165.088C293.009 163.455 286.241 165.563 288.942 168.739C291.644 171.916 293.692 175.567 296.601 176.725C299.511 177.883 298.412 179.694 297.967 181.92C297.522 184.147 301.589 187.798 303.845 189.134C306.101 190.47 303.845 192.786 304.528 195.19C304.528 195.19 305.775 198.545 306.992 198.664C308.209 198.783 328.218 198.634 328.218 198.634Z" fill="#BAC6F2"/>
<path d="M321.628 198.604C321.628 198.604 321.004 191.153 326.496 189.045C331.989 186.937 327.298 182.009 328.367 179.397C329.435 176.784 334.66 174.884 334.66 172.865C334.66 170.847 334.185 165.236 340.152 163.514C346.119 161.792 350.84 164.019 348.94 167.344C347.04 170.669 345.644 174.469 343.596 175.686C341.548 176.903 342.349 178.803 342.646 181.118C342.943 183.434 340.123 187.264 338.549 188.659C336.976 190.054 338.549 192.488 338.074 194.982C338.074 194.982 337.213 198.485 336.352 198.604C335.492 198.723 321.628 198.604 321.628 198.604Z" fill="#BAC6F2"/>
<path d="M131.187 55.1284L131.394 112.068L289.774 111.83V55.5737L131.187 55.1284Z" fill="white"/>
<path d="M159.508 72.9407V79.9468L224.374 79.6499V72.9407H159.508Z" fill="#BAC6F2"/>
<path d="M159.508 92.4453V99.4514L224.374 99.1545V92.4453H159.508Z" fill="#BAC6F2"/>
<path d="M148.553 82.3811C151.242 82.3811 153.422 80.2013 153.422 77.5124C153.422 74.8236 151.242 72.6438 148.553 72.6438C145.864 72.6438 143.685 74.8236 143.685 77.5124C143.685 80.2013 145.864 82.3811 148.553 82.3811Z" fill="#BAC6F2"/>
<path d="M148.553 100.579C151.242 100.579 153.422 98.3993 153.422 95.7104C153.422 93.0216 151.242 90.8418 148.553 90.8418C145.864 90.8418 143.685 93.0216 143.685 95.7104C143.685 98.3993 145.864 100.579 148.553 100.579Z" fill="#BAC6F2"/>
<path d="M280.601 80.6001H242.097V99.3919H280.601V80.6001Z" fill="#E9EDFA"/>
<path d="M241.473 98.5009C241.473 98.5009 244.472 91.9401 247.321 92.6526C250.171 93.3651 250.884 96.3635 253.021 95.0869C255.159 93.8104 256.554 88.6449 258.632 87.8137C261.601 86.6559 262.58 87.9324 266.588 90.2183C270.596 92.5042 272.288 91.9995 273.921 90.3074C275.435 88.7636 278.225 84.5778 281.313 82.7075" stroke="#BAC6F2" stroke-width="0.890606" stroke-linecap="round" stroke-linejoin="round"/>
<path d="M118.837 55.8706H61.541V110.346H118.837V55.8706Z" fill="white"/>
<path d="M89.4466 103.667C97.628 103.667 104.26 97.0345 104.26 88.8531C104.26 80.6716 97.628 74.0393 89.4466 74.0393C81.2652 74.0393 74.6328 80.6716 74.6328 88.8531C74.6328 97.0345 81.2652 103.667 89.4466 103.667Z" stroke="#BAC6F2" stroke-width="1.78121" stroke-linecap="round" stroke-linejoin="round"/>
<path d="M79.8873 60.5906H65.311V64.0342H79.8873V60.5906Z" fill="#BAC6F2"/>
<path d="M79.8873 65.9941H65.311V69.4378H79.8873V65.9941Z" fill="#BAC6F2"/>
<path d="M107.912 136.589H153.125C153.125 136.589 154.817 136.5 154.817 134.541V130.652H106.131V135.372C106.368 136.114 107.081 136.619 107.912 136.589Z" fill="#BAC5F4"/>
<path d="M106.131 101.262L106.101 132.136L154.817 131.691V100.371C154.817 100.371 155.114 98.5898 153.214 98.5898H107.971C107.971 98.5898 105.923 98.5898 106.131 101.262Z" fill="#BAC5F4"/>
<path d="M126.615 144.872V136.292L133.74 136.589V144.13L126.615 144.872Z" fill="#BAC5F4"/>
<path d="M115.304 144.01H144.902L144.931 145.495H115.304V144.01Z" fill="#BAC5F4"/>
<path d="M130.028 132.759C130.83 132.759 131.453 133.382 131.453 134.184C131.453 134.986 130.83 135.609 130.028 135.609C129.227 135.609 128.604 134.986 128.604 134.184C128.604 133.382 129.257 132.759 130.028 132.759Z" fill="white"/>
<path d="M153.333 100.074H107.615V130.058H153.333V100.074Z" fill="#F8F8FF"/>
<path d="M109.901 101.618C110.287 101.618 110.613 101.945 110.613 102.331C110.613 102.717 110.287 103.043 109.901 103.043C109.515 103.043 109.188 102.717 109.188 102.331C109.188 101.945 109.515 101.618 109.901 101.618Z" fill="#FA5F5D"/>
<path d="M112.336 101.618C112.721 101.618 113.048 101.945 113.048 102.331C113.048 102.717 112.721 103.043 112.336 103.043C111.95 103.043 111.623 102.717 111.623 102.331C111.623 101.945 111.95 101.618 112.336 101.618Z" fill="#FDBC4E"/>
<path d="M114.888 101.618C115.274 101.618 115.601 101.945 115.601 102.331C115.601 102.717 115.274 103.043 114.888 103.043C114.502 103.043 114.176 102.717 114.176 102.331C114.176 101.945 114.502 101.618 114.888 101.618Z" fill="#37CD58"/>
<path d="M124.833 106.842C124.804 107.228 124.477 107.525 124.091 107.495H115.333C114.888 107.495 114.443 107.199 114.443 106.842V105.506C114.443 105.15 114.858 104.824 115.333 104.824H124.061C124.447 104.794 124.804 105.091 124.833 105.477V105.506V106.842Z" fill="url(#paint0_linear)"/>
<path d="M145.911 115.689C145.881 116.105 145.525 116.431 145.109 116.402H115.333C114.888 116.402 114.443 116.075 114.443 115.689V109.099C114.443 108.713 114.888 108.386 115.333 108.386H145.109C145.525 108.356 145.881 108.683 145.911 109.099V115.689Z" fill="url(#paint1_linear)"/>
<path d="M124.24 121.33C124.24 121.716 123.913 122.043 123.527 122.043H115.333C114.858 122.043 114.443 121.716 114.443 121.33V117.708C114.443 117.322 114.888 116.996 115.333 116.996H123.468C123.854 116.966 124.21 117.263 124.24 117.679V117.708V121.33Z" fill="url(#paint2_linear)"/>
<path d="M134.927 121.33C134.927 121.716 134.6 122.043 134.215 122.043H126.021C125.546 122.043 125.13 121.716 125.13 121.33V117.708C125.13 117.322 125.576 116.996 126.021 116.996H134.155C134.541 116.966 134.897 117.263 134.927 117.679V117.708V121.33Z" fill="url(#paint3_linear)"/>
<path d="M145.911 121.33C145.881 121.746 145.525 122.072 145.109 122.043H136.975C136.53 122.072 136.174 121.746 136.114 121.33V117.708C136.144 117.263 136.53 116.966 136.975 116.996H145.109C145.525 116.966 145.911 117.293 145.941 117.708L145.911 121.33Z" fill="url(#paint4_linear)"/>
<path d="M134.927 123.378C134.868 123.526 134.749 123.615 134.6 123.645C134.571 123.645 134.571 123.645 134.541 123.526H125.576C125.398 123.645 125.13 123.526 125.13 123.378V123.259C125.13 123.111 125.398 122.962 125.576 122.933H134.541C134.69 122.962 134.779 123.081 134.808 123.2C134.808 123.229 134.808 123.229 134.897 123.259L134.927 123.378Z" fill="#E9EDFB"/>
<path d="M134.927 124.536C134.868 124.684 134.749 124.803 134.6 124.833C134.6 124.833 134.571 124.833 134.571 124.714H125.576C125.398 124.833 125.13 124.714 125.13 124.536V124.417C125.13 124.269 125.398 124.15 125.576 124.12H134.541C134.69 124.15 134.838 124.269 134.897 124.417L134.927 124.536Z" fill="#E9EDFB"/>
<path d="M134.927 125.723C134.868 125.901 134.719 126.02 134.571 126.05C134.571 125.99 134.571 125.961 134.571 125.901H125.576C125.427 125.99 125.249 125.961 125.16 125.812C125.13 125.783 125.13 125.753 125.13 125.723V125.604C125.13 125.456 125.398 125.367 125.576 125.308H134.541C134.69 125.337 134.838 125.456 134.897 125.604L134.927 125.723Z" fill="#E9EDFB"/>
<path d="M134.927 126.882C134.838 127.06 134.719 127.238 134.571 127.386H125.576C125.398 127.238 125.13 127.06 125.13 126.882V126.763C125.13 126.615 125.398 126.436 125.576 126.496H134.541C134.66 126.466 134.779 126.555 134.808 126.674C134.808 126.704 134.808 126.733 134.808 126.763C134.808 126.763 134.808 126.763 134.897 126.793L134.927 126.882Z" fill="#E9EDFB"/>
<path d="M129.94 128.069C129.94 128.217 129.851 128.276 129.672 128.276H125.546C125.368 128.276 125.13 128.217 125.13 128.069V127.95C125.13 127.801 125.368 127.683 125.546 127.683H129.672C129.821 127.683 129.94 127.801 129.94 127.95V128.069Z" fill="#E9EDFB"/>
<path d="M145.911 123.378C145.733 123.526 145.763 123.645 145.585 123.526H136.619C136.471 123.645 136.322 123.556 136.322 123.408C136.322 123.408 136.322 123.408 136.411 123.378V123.259C136.322 123.111 136.441 122.962 136.619 122.933H145.585C145.763 122.992 145.733 123.111 145.911 123.259V123.378Z" fill="#E9EDFB"/>
<path d="M145.911 124.536C145.733 124.684 145.763 124.833 145.585 124.714H136.619C136.441 124.833 136.323 124.714 136.412 124.536V124.417C136.323 124.269 136.441 124.15 136.619 124.12H145.585C145.763 124.179 145.733 124.269 145.911 124.417V124.536Z" fill="#E9EDFB"/>
<path d="M145.911 125.723C145.733 125.872 145.763 126.05 145.585 125.901H136.619C136.441 126.02 136.323 125.901 136.412 125.723V125.604C136.323 125.456 136.441 125.367 136.619 125.308H145.585C145.763 125.367 145.733 125.456 145.911 125.604V125.723Z" fill="#E9EDFB"/>
<path d="M145.911 126.881C145.733 127.03 145.763 127.238 145.584 127.386H136.619C136.441 127.208 136.322 127.059 136.411 126.881V126.763C136.352 126.703 136.352 126.585 136.411 126.525C136.471 126.495 136.53 126.466 136.589 126.495H145.584C145.763 126.436 145.733 126.614 145.911 126.763V126.881Z" fill="#E9EDFB"/>
<path d="M140.983 128.069C140.983 128.217 140.983 128.276 140.834 128.276H136.678C136.5 128.276 136.411 128.217 136.411 128.069V127.95C136.411 127.801 136.53 127.683 136.678 127.683H140.805C140.983 127.683 140.953 127.801 140.953 127.95L140.983 128.069Z" fill="#E9EDFB"/>
<path d="M123.943 123.378C124.061 123.526 124.002 123.645 123.824 123.526H114.829C114.71 123.615 114.562 123.586 114.502 123.497C114.473 123.467 114.473 123.437 114.443 123.378V123.259C114.502 123.081 114.651 122.962 114.829 122.933H123.794C123.972 122.992 124.032 123.111 123.913 123.259L123.943 123.378Z" fill="#E9EDFB"/>
<path d="M123.943 124.536C124.061 124.684 124.002 124.833 123.824 124.714H114.829C114.651 124.862 114.502 124.714 114.443 124.536V124.417C114.473 124.269 114.651 124.15 114.829 124.12H123.794C123.972 124.179 124.032 124.269 123.913 124.417L123.943 124.536Z" fill="#E9EDFB"/>
<path d="M123.943 125.723C124.061 125.872 124.002 126.05 123.824 125.901H114.829C114.651 126.05 114.502 125.901 114.443 125.723V125.604C114.473 125.456 114.651 125.367 114.829 125.308H123.794C123.972 125.367 124.032 125.456 123.913 125.604L123.943 125.723Z" fill="#E9EDFB"/>
<path d="M121.271 126.496H123.824C124.002 126.436 124.061 126.615 123.943 126.763V126.882C124.061 127.03 124.002 127.238 123.824 127.386H114.829C114.651 127.268 114.532 127.09 114.443 126.882V126.763C114.473 126.585 114.651 126.466 114.829 126.496H121.271Z" fill="#E9EDFB"/>
<path d="M119.49 128.069C119.49 128.217 119.401 128.276 119.222 128.276H114.769C114.591 128.276 114.443 128.217 114.443 128.069V127.95C114.473 127.801 114.621 127.683 114.769 127.683H119.222C119.371 127.683 119.49 127.801 119.49 127.92C119.49 127.92 119.49 127.92 119.49 127.95V128.069Z" fill="#E9EDFB"/>
<path d="M24.7294 222.801C24.7294 222.801 27.3418 208.61 13.5671 201.011C-0.177895 193.411 -0.831005 193.5 -3.5622 192.639C-5.1356 192.105 -6.73869 193.233 -4.92779 195.489C-3.11689 197.775 -4.15593 198.339 -0.534137 199.348C3.08766 200.358 3.62202 204.751 5.43292 205.85C7.24382 206.948 8.81722 207.245 14.339 209.62C19.3561 211.787 23.631 217.902 23.631 220.04C23.631 222.177 28.5293 222.92 28.5293 222.92L24.7294 222.801Z" fill="url(#paint5_linear)"/>
<path d="M24.2542 220.812C24.2542 220.812 27.7572 207.749 15.7044 200.684C3.65149 193.618 -0.53436 193.707 -2.939 192.847C-4.30459 192.342 -0.564047 194.064 1.00936 196.142C2.58276 198.25 2.19683 197.775 5.01708 199.318C8.28264 201.129 9.64824 202.881 11.5779 203.237C14.3684 203.771 13.5372 206.681 18.3762 208.848C22.7401 210.837 23.3042 216.151 23.3042 218.14C23.3042 220.158 27.5791 220.812 27.5791 220.812H24.2542Z" fill="url(#paint6_linear)"/>
<path d="M36.3666 218.882L37.7322 217.576C38.3854 216.982 39.1869 216.537 40.0478 216.299C44.293 215.171 57.6818 210.985 63.2333 200.862C63.2926 200.773 63.2333 200.654 63.1442 200.624H63.1145C63.0848 200.624 63.0551 200.595 63.0551 200.595C61.2146 200.446 51.6851 200.298 38.9494 211.163C38.7119 211.341 38.5041 211.579 38.326 211.787C37.9994 212.232 37.4651 213.004 37.2276 213.39C36.901 213.984 37.5541 214.963 36.6635 215.824C35.7729 216.685 33.8433 218.852 33.8433 218.852L35.4167 220.01L36.3666 218.882Z" fill="url(#paint7_linear)"/>
<path d="M29.1233 218.051C29.1233 218.051 32.7748 185.366 22.8 175.094C13.6268 165.654 13.4783 174.322 13.508 175.807C13.508 175.955 13.5674 176.044 13.5971 176.163C15.7642 180.2 16.5064 184.861 15.7345 189.373C14.7845 194.094 21.5531 193.47 22.1469 198.131C22.7406 202.792 25.0859 209.976 24.8484 213.271C24.6109 216.567 24.5812 219.773 24.5812 219.773L28.2624 219.892L29.1233 218.051Z" fill="url(#paint8_linear)"/>
<path d="M29.0935 218.14C29.1232 218.081 29.1529 217.992 29.1529 217.902C29.3904 215.765 32.4482 184.98 22.8296 175.064C13.7157 165.654 13.5673 174.174 13.6267 175.717C13.6564 175.896 13.7454 176.074 13.8345 176.222C14.5173 177.202 17.5157 181.477 20.1875 181.002C27.5795 179.695 21.0484 188.572 25.0561 193.322C28.2623 197.062 27.1936 210.006 26.9561 213.331C26.8076 215.201 26.4811 217.042 26.0061 218.852C25.917 219.327 26.2436 219.773 26.6889 219.862C26.7186 219.862 26.7483 219.862 26.7483 219.862C26.8076 219.862 26.867 219.891 26.9264 219.891H27.6092C28.0248 219.921 28.381 219.713 28.5592 219.357L29.0935 218.14Z" fill="url(#paint9_linear)"/>
<path d="M32.6855 220.04C32.6855 220.04 33.3386 210.985 38.6229 205.463C40.1072 203.949 41.9775 202.91 44.0259 202.435C45.5993 202.079 48.182 200.803 50.4382 196.557C50.4382 196.557 54.6834 190.531 58.9584 188.72C63.2036 186.879 58.9584 186.672 58.9584 186.672C58.9584 186.672 46.7867 188.987 38.9791 196.112C38.4744 196.557 37.9697 196.973 37.4057 197.329C35.387 198.725 29.7762 203.92 30.0137 219.149L32.6855 220.04Z" fill="url(#paint10_linear)"/>
<path d="M43.2542 219.327C43.2542 219.327 43.4324 218.229 41.9777 218.258C40.7012 218.318 19.2079 218.14 19.2079 218.14C19.2079 218.14 18.1985 218.14 18.2579 218.912C18.3173 219.683 21.5828 237.585 21.8797 237.941C22.0281 238.178 22.2359 238.356 22.5031 238.416C22.9187 238.535 37.9997 238.445 37.9997 238.445C38.3559 238.386 38.6231 238.119 38.6528 237.763C38.6528 237.763 43.2839 219.535 43.2542 219.327Z" fill="url(#paint11_linear)"/>
</g>
<defs>
<linearGradient id="paint0_linear" x1="114.436" y1="106.154" x2="124.826" y2="106.154" gradientUnits="userSpaceOnUse">
<stop stop-color="#F71D69"/>
<stop offset="1" stop-color="#F8C648"/>
</linearGradient>
<linearGradient id="paint1_linear" x1="114.436" y1="112.389" x2="145.904" y2="112.389" gradientUnits="userSpaceOnUse">
<stop stop-color="#93FD94"/>
<stop offset="1" stop-color="#21C4C0"/>
</linearGradient>
<linearGradient id="paint2_linear" x1="114.436" y1="119.513" x2="124.232" y2="119.513" gradientUnits="userSpaceOnUse">
<stop stop-color="#93FD94"/>
<stop offset="1" stop-color="#21C4C0"/>
</linearGradient>
<linearGradient id="paint3_linear" x1="125.123" y1="119.513" x2="134.92" y2="119.513" gradientUnits="userSpaceOnUse">
<stop stop-color="#93FD94"/>
<stop offset="1" stop-color="#21C4C0"/>
</linearGradient>
<linearGradient id="paint4_linear" x1="136.107" y1="119.514" x2="145.904" y2="119.514" gradientUnits="userSpaceOnUse">
<stop stop-color="#93FD94"/>
<stop offset="1" stop-color="#21C4C0"/>
</linearGradient>
<linearGradient id="paint5_linear" x1="-5.69021" y1="207.687" x2="28.5968" y2="207.687" gradientUnits="userSpaceOnUse">
<stop stop-color="#93FD93"/>
<stop offset="0.51" stop-color="#21C2C1"/>
<stop offset="1" stop-color="#84F599"/>
</linearGradient>
<linearGradient id="paint6_linear" x1="7.15659" y1="196.858" x2="26.6384" y2="220.743" gradientUnits="userSpaceOnUse">
<stop stop-color="#93FD93"/>
<stop offset="0.51" stop-color="#21C2C1"/>
<stop offset="1" stop-color="#84F599"/>
</linearGradient>
<linearGradient id="paint7_linear" x1="29.5898" y1="223.867" x2="56.3734" y2="203.143" gradientUnits="userSpaceOnUse">
<stop stop-color="#93FD93"/>
<stop offset="0.51" stop-color="#21C2C1"/>
<stop offset="1" stop-color="#84F599"/>
</linearGradient>
<linearGradient id="paint8_linear" x1="36.3232" y1="213.343" x2="13.3188" y2="184.22" gradientUnits="userSpaceOnUse">
<stop stop-color="#93FD93"/>
<stop offset="0.51" stop-color="#21C2C1"/>
<stop offset="1" stop-color="#84F599"/>
</linearGradient>
<linearGradient id="paint9_linear" x1="13.6101" y1="195.295" x2="29.7958" y2="195.295" gradientUnits="userSpaceOnUse">
<stop stop-color="#93FD93"/>
<stop offset="0.51" stop-color="#21C2C1"/>
<stop offset="1" stop-color="#84F599"/>
</linearGradient>
<linearGradient id="paint10_linear" x1="28.4083" y1="221.739" x2="45.9414" y2="196.383" gradientUnits="userSpaceOnUse">
<stop stop-color="#93FD93"/>
<stop offset="0.51" stop-color="#21C2C1"/>
<stop offset="1" stop-color="#84F599"/>
</linearGradient>
<linearGradient id="paint11_linear" x1="18.3006" y1="228.292" x2="43.2816" y2="228.292" gradientUnits="userSpaceOnUse">
<stop stop-color="#F8C547"/>
<stop offset="1" stop-color="#F71D69"/>
</linearGradient>
<clipPath id="clip0">
<rect width="365" height="252.309" fill="white"/>
</clipPath>
</defs>
</svg>
