<svg width="365" height="256" viewBox="0 0 365 256" fill="none" xmlns="http://www.w3.org/2000/svg">
<g clip-path="url(#clip0)">
<path d="M35.0484 135.167C29.5964 98.7022 17.3471 95.5159 7.93007 77.1066C-0.637339 60.3966 -7.50543 32.9951 16.6391 13.3821C54.1658 -17.0641 100.189 14.0901 100.189 14.0901C100.189 14.0901 173.118 55.8651 185.863 57.9893C198.608 60.1134 229.762 81.3549 268.705 55.8651C307.648 30.3753 340.926 32.4995 351.547 51.6168C362.168 70.7342 338.094 125.962 332.43 137.291C326.765 148.62 335.262 184.022 344.466 198.183C353.671 212.344 382.701 256.243 320.393 254.827C258.084 253.411 71.159 255.535 71.159 255.535C71.159 255.535 4.03579 254.261 15.931 188.979C25.8437 134.459 37.1726 149.328 35.0484 135.167Z" fill="#F8F8FF"/>
<path d="M59.1224 130.211C66.9433 130.211 73.2834 123.871 73.2834 116.05C73.2834 108.229 66.9433 101.889 59.1224 101.889C51.3015 101.889 44.9614 108.229 44.9614 116.05C44.9614 123.871 51.3015 130.211 59.1224 130.211Z" fill="#BAC5F4"/>
<path d="M35.4024 142.956C40.6815 142.956 44.9611 138.676 44.9611 133.397C44.9611 128.118 40.6815 123.838 35.4024 123.838C30.1233 123.838 25.8438 128.118 25.8438 133.397C25.8438 138.676 30.1233 142.956 35.4024 142.956Z" fill="#BAC5F4"/>
<path d="M36.8187 116.758C39.7515 116.758 42.1291 114.38 42.1291 111.447C42.1291 108.515 39.7515 106.137 36.8187 106.137C33.8858 106.137 31.5083 108.515 31.5083 111.447C31.5083 114.38 33.8858 116.758 36.8187 116.758Z" fill="#BAC5F4"/>
<path d="M364.842 213.866C366.095 206.146 360.853 198.872 353.133 197.62C345.413 196.367 338.139 201.609 336.886 209.329C335.633 217.049 340.876 224.323 348.596 225.576C356.316 226.829 363.59 221.586 364.842 213.866Z" fill="#BAC5F4"/>
<path d="M10.6209 49.4928C13.5538 49.4928 15.9313 47.1153 15.9313 44.1824C15.9313 41.2496 13.5538 38.8721 10.6209 38.8721C7.68808 38.8721 5.31055 41.2496 5.31055 44.1824C5.31055 47.1153 7.68808 49.4928 10.6209 49.4928Z" fill="#BAC5F4"/>
<path d="M99.127 235.71C113.009 235.71 124.263 224.456 124.263 210.574C124.263 196.692 113.009 185.438 99.127 185.438C85.2449 185.438 73.9912 196.692 73.9912 210.574C73.9912 224.456 85.2449 235.71 99.127 235.71Z" fill="#E1E6FB"/>
<path d="M265.165 247.747C274.55 247.747 282.158 240.139 282.158 230.754C282.158 221.369 274.55 213.76 265.165 213.76C255.78 213.76 248.172 221.369 248.172 230.754C248.172 240.139 255.78 247.747 265.165 247.747Z" fill="#E1E6FB"/>
<path d="M330.306 152.16C335.389 152.16 339.51 148.039 339.51 142.956C339.51 137.872 335.389 133.751 330.306 133.751C325.222 133.751 321.101 137.872 321.101 142.956C321.101 148.039 325.222 152.16 330.306 152.16Z" fill="#E1E6FB"/>
<path d="M261.625 78.523C271.792 78.523 280.034 70.2808 280.034 60.1137C280.034 49.9465 271.792 41.7043 261.625 41.7043C251.457 41.7043 243.215 49.9465 243.215 60.1137C243.215 70.2808 251.457 78.523 261.625 78.523Z" fill="#E1E6FB"/>
<path d="M92.7544 19.7547C97.6425 19.7547 101.605 15.7922 101.605 10.9041C101.605 6.01603 97.6425 2.05347 92.7544 2.05347C87.8664 2.05347 83.9038 6.01603 83.9038 10.9041C83.9038 15.7922 87.8664 19.7547 92.7544 19.7547Z" fill="#E1E6FB"/>
<path d="M64.4327 196.059C69.3207 196.059 73.2833 192.097 73.2833 187.209C73.2833 182.321 69.3207 178.358 64.4327 178.358C59.5446 178.358 55.582 182.321 55.582 187.209C55.582 192.097 59.5446 196.059 64.4327 196.059Z" fill="#E1E6FB"/>
<path d="M349.777 93.3919C354.665 93.3919 358.628 89.4294 358.628 84.5413C358.628 79.6532 354.665 75.6907 349.777 75.6907C344.889 75.6907 340.926 79.6532 340.926 84.5413C340.926 89.4294 344.889 93.3919 349.777 93.3919Z" fill="#BAC5F4"/>
<path d="M335.616 244.207C340.895 244.207 345.174 239.927 345.174 234.648C345.174 229.369 340.895 225.089 335.616 225.089C330.337 225.089 326.057 229.369 326.057 234.648C326.057 239.927 330.337 244.207 335.616 244.207Z" fill="#BAC5F4"/>
<path d="M356.857 244.915C359.79 244.915 362.168 242.537 362.168 239.604C362.168 236.671 359.79 234.294 356.857 234.294C353.924 234.294 351.547 236.671 351.547 239.604C351.547 242.537 353.924 244.915 356.857 244.915Z" fill="#BAC5F4"/>
<path d="M204.06 200.449H287.752C287.752 200.449 290.867 200.308 290.867 196.626V189.404H200.732V198.113C201.228 199.599 202.503 200.52 204.06 200.449Z" fill="#BAC5F4"/>
<path d="M200.732 135.096L200.662 192.236L290.796 191.386V133.397C290.796 133.397 291.363 130.069 287.823 130.069H204.131C204.131 130.14 200.378 130.14 200.732 135.096Z" fill="#BAC5F4"/>
<path d="M238.684 215.814V199.883L251.853 200.449V214.398L238.684 215.814Z" fill="#BAC5F4"/>
<path d="M217.726 214.185H272.529L272.599 216.947H217.726V214.185Z" fill="#BAC5F4"/>
<path d="M244.986 193.368C246.472 193.368 247.605 194.501 247.605 195.988C247.605 197.475 246.472 198.608 244.986 198.608C243.499 198.608 242.366 197.475 242.366 195.988C242.366 194.501 243.569 193.368 244.986 193.368Z" fill="white"/>
<path d="M288.106 132.901H203.494V188.412H288.106V132.901Z" fill="#F8F8FF"/>
<path d="M207.742 135.733C208.45 135.733 209.088 136.37 209.088 137.078C209.088 137.787 208.45 138.424 207.742 138.424C207.034 138.424 206.397 137.787 206.397 137.078C206.397 136.37 207.034 135.733 207.742 135.733Z" fill="#FA5F5D"/>
<path d="M212.274 135.733C212.982 135.733 213.619 136.37 213.619 137.078C213.619 137.787 212.982 138.424 212.274 138.424C211.565 138.424 210.928 137.787 210.928 137.078C210.928 136.37 211.495 135.733 212.274 135.733Z" fill="#FDBC4E"/>
<path d="M216.947 135.733C217.655 135.733 218.292 136.37 218.292 137.078C218.292 137.787 217.655 138.424 216.947 138.424C216.239 138.424 215.602 137.787 215.602 137.078C215.672 136.37 216.239 135.733 216.947 135.733Z" fill="#37CD58"/>
<path d="M235.356 145.433C235.285 146.142 234.719 146.708 234.011 146.637H217.796C216.947 146.637 216.168 146.071 216.168 145.433V142.955C216.168 142.318 216.947 141.681 217.796 141.681H233.94C234.648 141.61 235.285 142.176 235.356 142.884V142.955V145.433Z" fill="url(#paint0_linear)"/>
<path d="M274.37 161.789C274.299 162.568 273.662 163.135 272.883 163.135H217.796C216.947 163.135 216.168 162.497 216.168 161.789V149.611C216.168 148.903 217.018 148.266 217.796 148.266H272.883C273.662 148.195 274.299 148.832 274.37 149.611V161.789Z" fill="url(#paint1_linear)"/>
<path d="M234.294 172.198C234.294 172.906 233.657 173.543 232.949 173.543H217.796C216.947 173.543 216.168 172.906 216.168 172.198V165.471C216.168 164.763 217.018 164.126 217.796 164.126H232.878C233.586 164.055 234.223 164.622 234.294 165.401V165.471V172.198Z" fill="url(#paint2_linear)"/>
<path d="M254.048 172.198C254.048 172.906 253.411 173.543 252.703 173.543H237.551C236.701 173.543 235.922 172.906 235.922 172.198V165.471C235.922 164.763 236.772 164.126 237.551 164.126H252.632C253.34 164.055 253.978 164.622 254.048 165.401V165.471V172.198Z" fill="url(#paint3_linear)"/>
<path d="M274.369 172.198C274.298 172.977 273.661 173.543 272.882 173.543H257.801C256.951 173.614 256.314 172.977 256.172 172.198V165.471C256.243 164.622 256.951 164.126 257.801 164.126H272.882C273.661 164.055 274.369 164.692 274.44 165.471L274.369 172.198Z" fill="url(#paint4_linear)"/>
<path d="M254.048 176.021C253.907 176.304 253.694 176.446 253.411 176.517C253.34 176.517 253.34 176.517 253.27 176.304H236.701C236.347 176.517 235.852 176.304 235.852 176.021V175.809C235.852 175.525 236.347 175.242 236.701 175.171H253.27C253.553 175.242 253.694 175.455 253.765 175.667C253.765 175.738 253.765 175.738 253.907 175.809L254.048 176.021Z" fill="#E9EDFB"/>
<path d="M254.048 178.146C253.907 178.429 253.694 178.641 253.411 178.712C253.411 178.712 253.34 178.712 253.34 178.5H236.701C236.347 178.712 235.852 178.5 235.852 178.146V177.933C235.852 177.65 236.347 177.438 236.701 177.367H253.27C253.553 177.438 253.836 177.65 253.907 177.933L254.048 178.146Z" fill="#E9EDFB"/>
<path d="M254.048 180.34C253.907 180.694 253.694 180.907 253.411 180.977C253.411 180.836 253.411 180.836 253.411 180.694H236.772C236.489 180.836 236.135 180.836 235.993 180.553C235.922 180.482 235.922 180.411 235.922 180.411V180.199C235.922 179.915 236.418 179.774 236.772 179.632H253.34C253.624 179.703 253.907 179.915 253.978 180.199L254.048 180.34Z" fill="#E9EDFB"/>
<path d="M254.048 182.465C253.907 182.819 253.694 183.102 253.411 183.385H236.772C236.418 183.102 235.922 182.748 235.922 182.465V182.252C235.922 181.969 236.418 181.615 236.772 181.757H253.34C253.553 181.686 253.765 181.898 253.836 182.111C253.836 182.181 253.836 182.252 253.836 182.252C253.836 182.252 253.836 182.252 253.978 182.323L254.048 182.465Z" fill="#E9EDFB"/>
<path d="M244.844 184.659C244.844 184.943 244.702 185.013 244.348 185.013H236.701C236.347 185.013 235.922 184.872 235.922 184.659V184.447C235.922 184.164 236.347 183.951 236.701 183.951H244.348C244.631 183.951 244.844 184.164 244.844 184.447V184.659Z" fill="#E9EDFB"/>
<path d="M274.37 176.021C274.016 176.304 274.087 176.517 273.733 176.304H257.164C256.881 176.517 256.598 176.375 256.598 176.092C256.598 176.092 256.598 176.092 256.739 176.021V175.809C256.598 175.525 256.81 175.242 257.093 175.171H273.662C274.016 175.313 273.945 175.525 274.299 175.809V176.021H274.37Z" fill="#E9EDFB"/>
<path d="M274.369 178.146C274.015 178.429 274.086 178.712 273.732 178.5H257.164C256.81 178.712 256.597 178.5 256.81 178.146V177.933C256.668 177.65 256.881 177.438 257.164 177.367H273.732C274.086 177.508 274.015 177.65 274.369 177.933V178.146Z" fill="#E9EDFB"/>
<path d="M274.369 180.34C274.015 180.624 274.086 180.978 273.732 180.694H257.164C256.81 180.907 256.597 180.694 256.81 180.34V180.128C256.668 179.845 256.881 179.703 257.164 179.562H273.732C274.086 179.703 274.015 179.845 274.369 180.128V180.34Z" fill="#E9EDFB"/>
<path d="M274.369 182.465C274.015 182.748 274.086 183.102 273.732 183.385H257.164C256.81 183.031 256.597 182.748 256.81 182.465V182.252C256.668 182.111 256.668 181.898 256.81 181.827C256.951 181.757 257.022 181.686 257.164 181.757H273.803C274.157 181.615 274.086 181.969 274.44 182.252V182.465H274.369Z" fill="#E9EDFB"/>
<path d="M265.236 184.659C265.236 184.943 265.236 185.013 264.953 185.013H257.235C256.881 185.013 256.739 184.872 256.739 184.659V184.447C256.739 184.164 256.952 183.951 257.235 183.951H264.882C265.236 183.951 265.165 184.164 265.165 184.447L265.236 184.659Z" fill="#E9EDFB"/>
<path d="M233.728 176.021C233.94 176.304 233.869 176.517 233.515 176.304H216.876C216.664 176.446 216.38 176.446 216.239 176.233C216.168 176.163 216.168 176.092 216.097 176.021V175.809C216.239 175.455 216.451 175.242 216.805 175.171H233.374C233.728 175.313 233.798 175.525 233.586 175.809L233.728 176.021Z" fill="#E9EDFB"/>
<path d="M233.728 178.146C233.94 178.429 233.869 178.712 233.515 178.5H216.876C216.522 178.783 216.239 178.5 216.168 178.146V177.933C216.239 177.65 216.522 177.438 216.876 177.367H233.444C233.798 177.508 233.869 177.65 233.657 177.933L233.728 178.146Z" fill="#E9EDFB"/>
<path d="M233.728 180.34C233.94 180.624 233.869 180.978 233.515 180.694H216.876C216.522 180.978 216.239 180.694 216.168 180.34V180.128C216.239 179.845 216.522 179.703 216.876 179.562H233.444C233.798 179.703 233.869 179.845 233.657 180.128L233.728 180.34Z" fill="#E9EDFB"/>
<path d="M228.771 181.757H233.515C233.869 181.615 233.94 181.969 233.728 182.252V182.465C233.94 182.748 233.869 183.102 233.515 183.385H216.876C216.522 183.173 216.31 182.819 216.168 182.465V182.252C216.239 181.898 216.522 181.686 216.876 181.757H228.771Z" fill="#E9EDFB"/>
<path d="M225.514 184.659C225.514 184.943 225.373 185.013 225.019 185.013H216.805C216.451 185.013 216.168 184.872 216.168 184.659V184.447C216.239 184.164 216.522 183.951 216.805 183.951H225.019C225.302 183.951 225.514 184.164 225.514 184.376C225.514 184.376 225.514 184.376 225.514 184.447V184.659Z" fill="#E9EDFB"/>
<path d="M158.533 79.1601L185.085 47.5103L216.734 74.1329L190.183 105.712L158.533 79.1601Z" fill="url(#paint5_linear)" stroke="url(#paint6_linear)" stroke-width="3.54669" stroke-miterlimit="10"/>
<path d="M150.673 84.5412L156.692 77.3191L192.023 106.703L186.005 113.925L150.673 84.5412Z" fill="url(#paint7_linear)" stroke="url(#paint8_linear)" stroke-width="0.709338" stroke-miterlimit="10"/>
<path d="M197.051 78.4521C194.785 78.4521 167.879 86.0283 167.879 86.0283L188.766 103.73L192.448 94.5249C192.448 94.5249 197.759 78.4521 197.051 78.4521Z" fill="white"/>
<path d="M186.43 43.4036H144.867V84.9661H186.43V43.4036Z" fill="url(#paint9_linear)" stroke="url(#paint10_linear)" stroke-width="0.709338" stroke-miterlimit="10"/>
<path d="M186.076 43.0496H144.513V84.6121H186.076V43.0496Z" stroke="url(#paint11_linear)" stroke-width="3.54669" stroke-miterlimit="10"/>
<path d="M187.563 84.7537H142.531V94.0291H187.563V84.7537Z" fill="url(#paint12_linear)"/>
<path d="M167.737 83.904L179.491 64.1494L185.651 72.7168V84.258H180.836L167.737 83.904Z" fill="white"/>
<path d="M156.479 84.1166L170.499 65.4241L181.544 84.2582L156.479 84.1166Z" fill="white"/>
<path d="M157.613 51.0503C159.453 51.0503 160.94 52.5372 160.94 54.3781C160.94 56.2191 159.453 57.706 157.613 57.706C155.772 57.706 154.285 56.2191 154.285 54.3781C154.285 52.5372 155.772 51.0503 157.613 51.0503Z" fill="white"/>
<path d="M145.788 208.592C145.788 210.079 144.655 211.212 143.168 211.212H105.075C103.659 211.212 102.455 210.079 102.455 208.592V127.804C102.455 126.388 103.588 125.184 105.075 125.184H143.168C144.584 125.184 145.788 126.317 145.788 127.804V208.592Z" fill="url(#paint13_linear)"/>
<path d="M141.894 136.654H106.845V200.378H141.894V136.654Z" fill="white"/>
<path d="M106.916 200.449V136.583L130.494 136.512L116.475 200.378L106.916 200.449Z" fill="white"/>
<path d="M121.502 131.485H126.67C127.024 131.485 127.378 131.768 127.378 132.193C127.378 132.547 127.095 132.901 126.67 132.901H121.502C121.147 132.901 120.793 132.617 120.793 132.193C120.793 131.768 121.077 131.485 121.502 131.485Z" fill="url(#paint14_linear)" stroke="url(#paint15_linear)" stroke-width="0.709338" stroke-miterlimit="10"/>
<path d="M124.122 129.644C124.474 129.644 124.759 129.359 124.759 129.007C124.759 128.655 124.474 128.369 124.122 128.369C123.77 128.369 123.484 128.655 123.484 129.007C123.484 129.359 123.77 129.644 124.122 129.644Z" fill="url(#paint16_linear)"/>
<path d="M124.121 203.635C125.254 203.635 126.175 204.555 126.175 205.688C126.175 206.821 125.254 207.742 124.121 207.742C122.988 207.742 122.068 206.821 122.068 205.688C122.139 204.555 122.988 203.635 124.121 203.635Z" fill="url(#paint17_linear)" stroke="url(#paint18_linear)" stroke-width="0.709338" stroke-miterlimit="10"/>
<path d="M124.121 207.742C125.255 207.742 126.175 206.822 126.175 205.688C126.175 204.554 125.255 203.635 124.121 203.635C122.987 203.635 122.068 204.554 122.068 205.688C122.068 206.822 122.987 207.742 124.121 207.742Z" stroke="url(#paint19_linear)" stroke-width="1.41868" stroke-miterlimit="10"/>
</g>
<defs>
<linearGradient id="paint0_linear" x1="216.144" y1="144.146" x2="235.373" y2="144.146" gradientUnits="userSpaceOnUse">
<stop stop-color="#F71D69"/>
<stop offset="1" stop-color="#F8C648"/>
</linearGradient>
<linearGradient id="paint1_linear" x1="216.144" y1="155.684" x2="274.381" y2="155.684" gradientUnits="userSpaceOnUse">
<stop stop-color="#93FD94"/>
<stop offset="1" stop-color="#21C4C0"/>
</linearGradient>
<linearGradient id="paint2_linear" x1="216.144" y1="168.868" x2="234.274" y2="168.868" gradientUnits="userSpaceOnUse">
<stop stop-color="#93FD94"/>
<stop offset="1" stop-color="#21C4C0"/>
</linearGradient>
<linearGradient id="paint3_linear" x1="235.922" y1="168.868" x2="254.053" y2="168.868" gradientUnits="userSpaceOnUse">
<stop stop-color="#93FD94"/>
<stop offset="1" stop-color="#21C4C0"/>
</linearGradient>
<linearGradient id="paint4_linear" x1="256.25" y1="168.869" x2="274.381" y2="168.869" gradientUnits="userSpaceOnUse">
<stop stop-color="#93FD94"/>
<stop offset="1" stop-color="#21C4C0"/>
</linearGradient>
<linearGradient id="paint5_linear" x1="192.528" y1="105.335" x2="182.691" y2="47.94" gradientUnits="userSpaceOnUse">
<stop stop-color="#21C2C1"/>
<stop offset="1" stop-color="#84F599"/>
</linearGradient>
<linearGradient id="paint6_linear" x1="193.001" y1="108.105" x2="182.322" y2="45.785" gradientUnits="userSpaceOnUse">
<stop stop-color="#21C2C1"/>
<stop offset="1" stop-color="#84F599"/>
</linearGradient>
<linearGradient id="paint7_linear" x1="150.74" y1="95.7071" x2="191.965" y2="95.5145" gradientUnits="userSpaceOnUse">
<stop stop-color="#93FD93"/>
<stop offset="1" stop-color="#21C2C1"/>
</linearGradient>
<linearGradient id="paint8_linear" x1="150.241" y1="95.7097" x2="192.464" y2="95.5124" gradientUnits="userSpaceOnUse">
<stop stop-color="#21C2C1"/>
<stop offset="1" stop-color="#84F599"/>
</linearGradient>
<linearGradient id="paint9_linear" x1="144.863" y1="64.1735" x2="186.43" y2="64.1735" gradientUnits="userSpaceOnUse">
<stop stop-color="#21C2C1"/>
<stop offset="1" stop-color="#84F599"/>
</linearGradient>
<linearGradient id="paint10_linear" x1="144.509" y1="64.1736" x2="186.784" y2="64.1736" gradientUnits="userSpaceOnUse">
<stop stop-color="#21C2C1"/>
<stop offset="1" stop-color="#84F599"/>
</linearGradient>
<linearGradient id="paint11_linear" x1="142.764" y1="63.864" x2="187.871" y2="63.864" gradientUnits="userSpaceOnUse">
<stop stop-color="#21C2C1"/>
<stop offset="1" stop-color="#84F599"/>
</linearGradient>
<linearGradient id="paint12_linear" x1="142.549" y1="89.3788" x2="187.611" y2="89.3788" gradientUnits="userSpaceOnUse">
<stop stop-color="#93FD93"/>
<stop offset="1" stop-color="#21C2C1"/>
</linearGradient>
<linearGradient id="paint13_linear" x1="61.7659" y1="216.691" x2="144.403" y2="152.395" gradientUnits="userSpaceOnUse">
<stop offset="0.000677507" stop-color="#93DF93"/>
<stop offset="0.9993" stop-color="#21C2C1"/>
</linearGradient>
<linearGradient id="paint14_linear" x1="120.792" y1="132.18" x2="127.357" y2="132.18" gradientUnits="userSpaceOnUse">
<stop stop-color="#7A5BF5"/>
<stop offset="1" stop-color="#805FF5"/>
</linearGradient>
<linearGradient id="paint15_linear" x1="120.438" y1="132.18" x2="127.711" y2="132.18" gradientUnits="userSpaceOnUse">
<stop stop-color="#7A5BF5"/>
<stop offset="1" stop-color="#805FF5"/>
</linearGradient>
<linearGradient id="paint16_linear" x1="123.484" y1="128.985" x2="124.71" y2="128.985" gradientUnits="userSpaceOnUse">
<stop stop-color="#7A5BF5"/>
<stop offset="1" stop-color="#805FF5"/>
</linearGradient>
<linearGradient id="paint17_linear" x1="122.109" y1="205.673" x2="126.187" y2="205.673" gradientUnits="userSpaceOnUse">
<stop stop-color="#7A5BF5"/>
<stop offset="1" stop-color="#805FF5"/>
</linearGradient>
<linearGradient id="paint18_linear" x1="121.755" y1="205.673" x2="126.543" y2="205.673" gradientUnits="userSpaceOnUse">
<stop stop-color="#7A5BF5"/>
<stop offset="1" stop-color="#805FF5"/>
</linearGradient>
<linearGradient id="paint19_linear" x1="121.401" y1="205.673" x2="126.898" y2="205.673" gradientUnits="userSpaceOnUse">
<stop stop-color="#7A5BF5"/>
<stop offset="1" stop-color="#805FF5"/>
</linearGradient>
<clipPath id="clip0">
<rect width="365" height="255.535" fill="white"/>
</clipPath>
</defs>
</svg>
