<svg width="365" height="234" viewBox="0 0 365 234" fill="none" xmlns="http://www.w3.org/2000/svg">
<path d="M84.1554 53.6291L65.4249 66.2543C65.1611 66.4051 64.7466 63.7293 64.4828 63.8423L51.7445 68.7417L51.5938 160.284L131.302 159.304L130.699 35.2378L106.429 35.4262L84.1554 53.6291Z" fill="#E9EDFB"/>
<path d="M77.9747 56.6067L58.4527 66.1792L58.415 68.7419L123.425 68.3651L123.162 44.9613L95.1223 44.5845L88.8663 49.3707C87.7733 50.1999 86.4166 51.1043 84.7207 52.235C81.8941 54.0816 80.1982 55.3253 77.9747 56.6067Z" fill="#B0C0F4"/>
<path d="M58.4526 72.5491V95.6513L123.538 95.5382V72.5491H58.4526Z" fill="#B0C0F4"/>
<path d="M58.6411 99.7959V122.898L123.689 122.747L123.727 99.7959H58.6411Z" fill="#B0C0F4"/>
<path d="M58.9805 127.421V150.524L124.066 150.411V127.421H58.9805Z" fill="#B0C0F4"/>
<path d="M81.1025 112.912L84.1552 108.917L95.499 119.017L92.6348 123.125L81.1025 112.912Z" fill="white"/>
<path d="M58.6035 104.281L65.9525 104.319L65.9902 122.936L58.6412 122.861L58.6035 104.281Z" fill="white"/>
<path d="M74.6582 107.446L77.6732 105.75L85.3237 121.051L82.3464 123.087L74.6582 107.446Z" fill="#F5F5FC"/>
<path d="M71.1157 102.246H74.696L74.7714 123.011L71.1157 122.898V102.246Z" fill="white"/>
<path d="M65.9899 108.577L71.1908 108.69L71.1154 122.973L65.9146 122.86L65.9899 108.577Z" fill="#F5F5FC"/>
<path d="M94.4814 104.244L101.793 104.281L101.868 122.899L94.4814 122.786V104.244Z" fill="white"/>
<path d="M106.994 102.208H110.536L110.649 122.936L106.956 122.861L106.994 102.208Z" fill="white"/>
<path d="M101.868 108.539L107.069 108.615L106.956 122.898L101.755 122.823L101.868 108.539Z" fill="#F5F5FC"/>
<path d="M58.9805 129.343L64.5959 129.381L64.6335 150.712L59.0182 150.599L58.9805 129.343Z" fill="white"/>
<path d="M64.5959 132.546L68.4023 132.509L68.2892 150.636L64.5205 150.599L64.5959 132.546Z" fill="#F5F5FC"/>
<path d="M68.4022 136.278L73.5653 136.353L73.4523 150.636L68.2515 150.561L68.4022 136.278Z" fill="white"/>
<path d="M100.059 65.6138V68.2896L120.862 68.4403V65.6138H100.059Z" fill="#F5F5FC"/>
<path d="M100.021 63.5031L100.097 65.6513L113.664 65.7266L113.551 63.4277L100.021 63.5031Z" fill="white"/>
<path d="M58.4907 77.0334L65.8397 77.0711L65.8774 95.6886L58.4907 95.5755V77.0334Z" fill="white"/>
<path d="M115.661 80.0106L112.571 78.3147L104.619 93.6157L107.747 95.6131L115.661 80.0106Z" fill="#F5F5FC"/>
<path d="M120.033 74.8101H123.613L123.689 95.538L120.033 95.4626V74.8101Z" fill="white"/>
<path d="M115.134 81.2539L120.335 81.3293L120.26 95.6127L115.059 95.5373L115.134 81.2539Z" fill="#F5F5FC"/>
<path d="M80.123 92.9368V95.6126L100.926 95.7633V92.9368H80.123Z" fill="#F5F5FC"/>
<path d="M83.3638 90.7512L83.4768 92.8993L97.0442 92.9747L96.9311 90.6758L83.3638 90.7512Z" fill="white"/>
<path d="M280.958 186.777C280.958 186.777 274.702 194.164 279.827 194.352C284.953 194.541 295.467 200.495 297.465 195.181C299.462 189.867 303.495 187.192 301.045 186.589C298.596 185.986 296.372 183.498 291.209 183.913C286.046 184.327 280.958 186.777 280.958 186.777Z" fill="#F5F5FC"/>
<path d="M279.338 150.861C279.338 150.861 276.398 151.163 276.398 154.818C276.398 158.474 278.282 189.905 285.443 190.546C290.078 190.96 295.015 190.923 297.465 190.697C298.52 190.584 299.538 187.418 299.726 186.136C300.668 179.88 301.874 164.655 302.138 155.798C302.176 153.989 300.97 151.615 300.329 151.012C296.749 147.733 279.338 150.861 279.338 150.861Z" fill="#E1E6FB"/>
<path d="M313.972 90.0342C312.841 88.979 311.258 90.4111 311.861 91.8809C312.427 93.313 312.841 95.7627 310.542 98.4008C307 102.509 294.224 116.378 294.375 125.309C294.525 134.241 291.736 136.729 294.375 140.12C297.013 143.512 307.64 143.399 310.429 136.163C313.218 128.927 320.266 126.025 320.115 115.699C319.964 105.373 318.758 100.85 317.477 97.3079C316.723 95.0843 315.442 91.4287 313.972 90.0342Z" fill="#E9EDFB"/>
<path d="M294.638 149.543C294.638 149.543 295.769 133.375 308.394 126.327C316.308 121.918 316.836 106.617 314.952 103.15" stroke="white" stroke-width="1.13061" stroke-linecap="round" stroke-linejoin="round"/>
<path d="M296.259 156.326C296.259 156.326 300.253 172.23 295.919 184.855L296.259 156.326Z" fill="#BAC5F4"/>
<path d="M305.342 86.5295C304.136 85.5119 302.44 86.8687 303.08 88.3008C303.683 89.6575 304.098 92.0318 301.686 94.5568C297.88 98.4763 284.237 111.742 284.35 120.297C284.463 128.852 284.35 133.827 287.176 137.068C290.003 140.309 296.598 137.709 299.575 130.812C302.553 123.915 312.088 120.976 311.937 111.064C311.786 101.19 310.467 96.8558 309.11 93.4639C308.281 91.3157 306.924 87.8485 305.342 86.5295Z" fill="#BAC5F4"/>
<path d="M289.362 149.881C289.362 149.881 284.915 127.909 295.731 114.681C300.065 109.405 306.472 98.8149 306.434 93.6895" stroke="white" stroke-width="1.13061" stroke-linecap="round" stroke-linejoin="round"/>
<path d="M271.612 90.0342C272.705 88.979 274.287 90.4111 273.722 91.8809C273.157 93.313 272.78 95.7627 275.041 98.4008C278.546 102.509 291.209 116.378 291.096 125.309C290.983 134.241 291.096 139.442 288.458 142.872C285.82 146.301 279.752 143.55 277.001 136.314C274.25 129.078 265.431 126.025 265.544 115.699C265.657 105.373 266.901 100.85 268.144 97.3079C268.898 95.0843 270.142 91.4287 271.612 90.0342Z" fill="#E9EDFB"/>
<path d="M285.82 150.258C285.82 150.258 290.907 130.284 280.883 117.094C276.888 111.818 270.443 103.979 270.519 98.8909" stroke="white" stroke-width="1.13061" stroke-linecap="round" stroke-linejoin="round"/>
<path d="M263.471 124.857C263.471 124.857 252.994 125.083 247.341 112.383C241.688 99.6822 254.426 97.0818 263.773 103.903C273.119 110.725 269.313 113.551 280.468 119.845C291.623 126.139 289.211 138.613 285.744 141.929C282.277 145.246 275.719 150.409 271.348 136.917C266.976 123.425 263.471 124.857 263.471 124.857Z" fill="#B0C0F4"/>
<path d="M283.822 150.409C283.822 150.409 284.576 118.601 253.032 109.858" stroke="white" stroke-width="1.13061" stroke-linecap="round" stroke-linejoin="round"/>
<path d="M279.337 150.861C279.337 150.861 292.189 148.788 297.201 149.881C302.213 150.974 288.345 152.255 288.345 152.255C288.345 152.255 281.712 152.557 279.337 150.861Z" fill="#BAC5F4"/>
<path d="M123.538 154.216C123.538 154.216 109.066 142.797 106.617 131.604C104.167 120.411 109.481 112.647 117.207 111.441C124.933 110.235 129.644 106.542 156.741 115.738C183.838 124.933 215.043 108.615 215.043 108.615C215.043 108.615 240.519 96.894 253.107 99.7582C267.428 102.999 270.481 111.667 266.599 127.157C262.717 142.646 249.526 154.367 249.526 154.367L123.538 154.216Z" fill="#BAC5F4"/>
<path d="M116.981 153.01C116.981 153.01 114.72 153.01 114.343 155.271C113.966 157.533 114.72 164.693 115.85 166.954C116.981 169.216 122.295 169.103 122.295 169.103L251.524 168.839C251.524 168.839 255.82 168.877 256.8 165.447C257.592 162.696 258.722 159.945 258.835 158.023C258.948 155.761 257.328 153.802 255.104 153.5C253.71 153.312 252.278 153.236 250.883 153.236C241.047 153.236 116.981 153.01 116.981 153.01Z" fill="#BAC5F4"/>
<path d="M110.951 188.059L119.619 169.216H126.402L117.357 188.059H110.951Z" fill="white"/>
<path d="M244.363 169.216L252.278 188.436L257.931 188.059L250.393 169.216H244.363Z" fill="white"/>
<path d="M125.762 153.237C125.762 153.237 113.853 144.041 113.287 140.235C112.571 135.26 117.056 127.874 134.468 131.152C151.879 134.431 182.594 143.288 199.252 138.765C215.91 134.243 236.864 115.248 238.371 114.231C239.879 113.213 257.705 104.47 261.737 117.811C265.77 131.152 249.489 153.086 249.489 153.086L125.762 153.237Z" fill="#B0C0F4"/>
<path d="M183.687 0.000732422L184.177 25.5149L184.78 25.4019L185.308 0.000732422H183.687Z" fill="#BAC5F4"/>
<path d="M170.76 46.4309C170.76 46.4309 166.012 25.1377 184.818 24.9116C202.606 24.7231 198.046 47.5238 198.046 47.5238L170.76 46.4309Z" fill="#BAC5F4"/>
<path d="M170.572 46.4312C170.572 46.4312 185.685 39.8737 198.046 47.4488C198.046 47.4488 185.044 54.3455 170.572 46.4312Z" fill="white"/>
<path d="M177.883 28.7188C177.883 28.7188 171.288 31.1684 172.645 42.3615L177.883 28.7188Z" fill="white"/>
<path d="M170.572 46.4312L157.23 94.4069L211.801 93.8793L198.046 47.4487L170.572 46.4312Z" fill="url(#paint0_linear)"/>
<path d="M263.508 173.889C263.508 173.889 259.325 189.077 260.003 190.773C260.681 192.468 264.073 192.808 265.581 193.147C267.088 193.486 280.769 197.066 282.163 197.142C283.558 197.217 283.445 197.405 284.048 197.405C284.651 197.405 292.263 194.843 292.527 193.938C292.791 193.034 293.017 192.431 292.791 191.3C292.565 190.17 289.098 175.698 288.155 175.396C287.213 175.095 263.508 173.889 263.508 173.889Z" fill="url(#paint1_linear)"/>
<path d="M262.792 176.602C262.792 176.602 263.093 174.228 263.508 173.889C263.923 173.55 265.091 172.004 266.222 171.929C267.352 171.854 285.555 174.153 286.233 174.303C286.912 174.454 287.816 174.793 288.118 175.359C288.419 175.924 285.48 176.602 284.914 178.411C284.349 180.22 273.947 184.027 271.385 184.29C268.822 184.554 262.792 176.602 262.792 176.602Z" fill="url(#paint2_linear)"/>
<path d="M268.747 172.532C268.747 172.532 270.706 168.274 271.648 167.482C272.478 166.766 275.455 165.221 277.264 167.52C279.299 170.12 279.111 173.135 279.111 173.512C279.111 173.889 277.113 173.55 277.113 173.55C277.113 173.55 277.754 170.46 277.189 169.404C276.661 168.425 276.359 167.256 274.475 167.369C272.591 167.482 271.912 168.538 271.347 169.517C270.857 170.497 270.48 171.515 270.141 172.57C270.066 172.683 268.747 172.532 268.747 172.532Z" fill="#7A5BF5"/>
<path d="M271.875 172.796C271.875 172.796 273.834 167.595 274.776 166.616C275.606 165.749 278.771 164.015 280.58 166.804C282.615 169.97 282.201 173.512 282.201 173.927C282.201 174.341 280.203 174.002 280.203 174.002C280.203 174.002 280.806 170.234 280.241 168.915C279.713 167.709 279.412 166.276 277.565 166.427C275.719 166.578 275.003 167.822 274.437 169.065C273.947 170.271 273.57 171.515 273.231 172.796C273.231 172.985 271.875 172.796 271.875 172.796Z" fill="#7A5BF5"/>
<path d="M284.123 179.467C284.123 179.467 282.389 194.052 282.616 195.032C282.842 196.012 283.407 197.406 283.822 197.406C284.236 197.406 284.914 197.331 284.651 196.991C283.784 195.748 283.407 194.203 283.633 192.733C283.897 190.358 284.914 178.412 284.914 178.412L284.123 179.467Z" fill="#7A5BF5"/>
<path d="M270.932 185.346C271.515 185.346 271.987 184.873 271.987 184.291C271.987 183.708 271.515 183.235 270.932 183.235C270.349 183.235 269.877 183.708 269.877 184.291C269.877 184.873 270.349 185.346 270.932 185.346Z" fill="white"/>
<path d="M88.4515 63.3147H96.7804C96.8558 63.3147 96.9311 63.3901 96.9311 63.4654C96.9311 63.5408 96.8558 63.6162 96.7804 63.6162H88.4515C88.3762 63.6162 88.3008 63.5408 88.3008 63.4654C88.3008 63.3901 88.3762 63.3147 88.4515 63.3147Z" fill="#F4F4F4"/>
<path d="M88.4515 63.8428H96.7804C96.8558 63.8428 96.9311 63.9182 96.9311 63.9935C96.9311 64.0689 96.8558 64.1443 96.7804 64.1443H88.4515C88.3762 64.1443 88.3008 64.0689 88.3008 63.9935C88.3008 63.8805 88.3762 63.8428 88.4515 63.8428Z" fill="#F4F4F4"/>
<path d="M88.4515 64.3323H96.7804C96.8558 64.3323 96.9311 64.4077 96.9311 64.483C96.9311 64.5584 96.8558 64.6338 96.7804 64.6338H88.4515C88.3762 64.6338 88.3008 64.5584 88.3008 64.483C88.3008 64.4077 88.3762 64.3323 88.4515 64.3323Z" fill="#F4F4F4"/>
<path d="M90.3739 65.9536H97.9867C98.0621 65.9536 98.1374 66.029 98.1374 66.1044C98.1374 66.1797 98.0621 66.2551 97.9867 66.2551H90.3739C90.2985 66.2551 90.2231 66.1797 90.2231 66.1044C90.2231 66.029 90.2608 65.9536 90.3739 65.9536Z" fill="#F4F4F4"/>
<path d="M90.3739 66.4429H97.9867C98.0621 66.4429 98.1374 66.5182 98.1374 66.5936C98.1374 66.669 98.0621 66.7444 97.9867 66.7444H90.3739C90.2985 66.7444 90.2231 66.669 90.2231 66.5936C90.2231 66.5182 90.2608 66.4429 90.3739 66.4429Z" fill="#F4F4F4"/>
<path d="M90.3739 66.9709H97.9867C98.0621 66.9709 98.1374 67.0463 98.1374 67.1217C98.1374 67.1971 98.0621 67.2724 97.9867 67.2724H90.3739C90.2985 67.2724 90.2231 67.1971 90.2231 67.1217C90.2231 67.0086 90.2608 66.9709 90.3739 66.9709Z" fill="#F4F4F4"/>
<path d="M77.2585 62.787C77.2585 62.787 76.1279 62.8624 76.1279 63.993C76.1279 65.1237 77.2962 65.1613 77.2962 65.1613L97.1197 65.199V64.8598H88.2632C88.2632 64.8598 87.9994 64.8975 88.0371 64.483V63.3147C88.0371 63.1639 88.1501 63.0509 88.2632 63.0509H88.3009C88.7154 63.0509 96.9689 63.1639 96.9689 63.1639V62.7117L77.2585 62.787Z" fill="url(#paint3_linear)"/>
<path d="M78.0874 65.1617C78.0874 65.1617 76.8438 65.2748 76.8438 66.5184C76.8438 67.5737 77.7106 67.8375 77.9367 67.8752C77.9744 67.8752 78.0121 67.8752 78.0497 67.8752L98.2877 67.9129V67.4983L90.4488 67.4606C90.4488 67.4606 89.9589 67.4606 89.9966 66.9707V65.9531C89.9966 65.9531 89.9589 65.5763 90.3734 65.5763C90.7503 65.5763 98.137 65.6516 98.137 65.6516V65.124L78.0874 65.1617Z" fill="url(#paint4_linear)"/>
<path d="M89.5068 63.3149H90.1852C90.3736 63.4657 90.5244 63.6541 90.5621 63.8802C90.6751 64.2571 90.5621 64.3702 90.7882 64.8224C90.9389 65.0862 91.0897 65.2747 91.1651 65.4254C91.2028 65.4631 91.2028 65.7269 91.2028 65.7646L91.2404 66.443L90.9766 66.2922L90.7128 66.556C90.7128 66.556 90.7128 65.6515 90.5998 65.5008C90.4867 65.35 90.0345 64.7094 90.1098 64.2571C90.1852 63.7672 89.9968 63.6164 89.5068 63.3149Z" fill="#F8246A"/>
<path d="M100.398 51.0288H101.943C102.32 51.0288 102.622 51.3303 102.622 51.7072V67.6488C102.622 68.0257 102.32 68.3272 101.943 68.3272H100.398C100.021 68.3272 99.7197 68.0257 99.7197 67.6488V51.7072C99.7197 51.3303 100.021 51.0288 100.398 51.0288Z" fill="url(#paint5_linear)"/>
<path d="M68.5529 50.915H70.0981C70.4749 50.915 70.7764 51.2165 70.7764 51.5934V67.5351C70.7764 67.9119 70.4749 68.2134 70.0981 68.2134H68.5529C68.176 68.2134 67.8745 67.9119 67.8745 67.5351V51.5934C67.8745 51.2165 68.176 50.915 68.5529 50.915Z" fill="url(#paint6_linear)"/>
<path d="M105.788 57.8882L106.881 57.2475C107.182 57.0591 107.597 57.1721 107.785 57.5113L113.099 66.707C113.287 67.0085 113.174 67.423 112.835 67.6115L111.742 68.2522C111.441 68.4406 111.026 68.3275 110.838 67.9883L105.524 58.7927C105.335 58.4535 105.449 58.0389 105.788 57.8882Z" fill="url(#paint7_linear)"/>
<path d="M103.225 53.4778H104.77C105.147 53.4778 105.448 53.7793 105.448 54.1562V67.6482C105.448 68.025 105.147 68.3265 104.77 68.3265H103.225C102.848 68.3265 102.546 68.025 102.546 67.6482V54.1562C102.584 53.7793 102.848 53.4778 103.225 53.4778Z" fill="url(#paint8_linear)"/>
<path d="M71.4547 51.5183H72.9999C73.3768 51.5183 73.6783 51.8198 73.6783 52.1967V67.5353C73.6783 67.9122 73.3768 68.2137 72.9999 68.2137H71.4547C71.0779 68.2137 70.7764 67.9122 70.7764 67.5353V52.1967C70.7764 51.8198 71.0779 51.5183 71.4547 51.5183Z" fill="url(#paint9_linear)"/>
<path d="M250.431 192.507C249.866 190.132 249.678 187.08 249.301 187.004H248.886L244.891 187.042C244.891 187.042 244.062 190.848 243.648 192.431C243.61 192.544 243.535 192.808 243.459 192.997C243.384 193.26 243.384 193.562 243.384 193.826C243.459 195.258 244.024 196.502 245.306 197.142C246.738 197.858 247.831 198.537 249.301 197.142C250.77 195.748 250.997 194.881 250.431 192.507Z" fill="#4B44BE"/>
<path d="M237.806 187.381L232.756 187.645C232.756 187.645 230.759 191.112 227.819 191.941C225.068 192.733 220.508 194.655 222.543 195.748C224.05 196.614 233.773 195.823 236.148 196.011C237.919 196.162 238.409 195.069 238.221 192.695C238.07 190.924 237.806 187.381 237.806 187.381Z" fill="#4B44BE"/>
<path d="M231.738 124.293C231.738 124.293 228.347 152.181 228.121 153.99C227.894 155.799 229.289 165.108 229.289 166.879C229.289 168.651 232.605 187.683 232.605 187.683L237.881 187.457C237.881 187.457 236.826 159.455 236.939 158.098C237.052 156.742 242.818 140.498 242.818 140.498C242.818 140.498 243.233 144.795 243.233 146.152C243.233 147.508 244.816 187.117 244.816 187.117H249.414L255.934 128.778L255.821 127.647L231.738 124.293Z" fill="url(#paint10_linear)"/>
<path d="M247.265 70.438C247.265 70.438 242.215 72.3977 241.085 72.85C239.954 73.3022 239.313 74.6966 239.313 74.6966C239.313 74.6966 238.748 74.3575 238.748 75.2996C238.748 76.2418 239.2 78.39 239.577 78.9553C240.18 79.8975 240.708 80.8396 241.198 81.8195C241.65 82.7994 241.499 84.8345 241.009 85.136C240.519 85.4375 232.002 93.1257 232.002 93.1257L224.917 114.947L225.859 121.843L227.291 128.627C227.291 128.627 226.99 129.117 227.593 129.682C228.196 130.247 230.758 134.468 230.758 134.468L231.625 128.25L228.723 119.017L227.706 111.253L234.49 97.3843L258.006 101.568L260.569 116.68L255.82 129.569L254.991 135.863L258.986 132.358C259.212 132.17 259.665 131.19 259.891 130.662L262.265 123.954L264.036 113.251C264.036 113.251 249.188 86.4927 248.434 84.9099C248.095 84.1938 248.471 82.4602 248.66 81.5934C248.848 80.802 249.225 79.7844 249.602 79.4829C250.167 78.8799 250.431 78.0131 250.582 77.2217C250.582 76.6564 250.808 74.4705 250.243 74.9981C250.13 75.1489 249.715 74.4705 249.527 73.6037C249.188 72.3223 248.283 71.2671 247.265 70.438Z" fill="url(#paint11_linear)"/>
<path d="M245.344 92.2593C244.967 92.5985 244.401 92.5608 244.062 92.2216C243.798 91.8071 243.535 91.3925 243.346 90.978C242.969 90.2242 240.067 85.9656 240.067 85.9656C240.067 85.9656 233.171 87.7369 232.078 88.4529C230.947 89.2067 229.93 90.2242 229.553 91.5433C229.176 92.8623 223.862 108.352 223.598 109.294C223.334 110.236 221.978 111.744 222.618 115.55C223.259 119.356 226.839 129.117 227.216 129.23C227.593 129.343 231.399 127.459 231.399 127.459C231.399 127.459 228.384 115.324 228.384 114.118C228.384 112.912 231.098 109.482 232.191 107.146C233.284 104.809 234.075 102.774 234.452 101.756C234.829 100.739 231.211 121.919 231.211 121.919C231.211 121.919 231.136 125.763 231.852 126.14C232.53 126.479 240.633 129.57 242.517 130.286C242.706 130.361 242.932 130.248 243.045 130.06L244.251 126.63C244.251 126.592 244.288 126.555 244.326 126.592C244.364 126.592 244.364 126.63 244.364 126.63L245.494 130.361C245.532 130.549 245.758 130.663 245.947 130.625L255.934 128.477C255.934 128.477 255.783 110.048 255.971 106.957C256.122 103.942 255.745 102.246 256.311 103.076C256.914 103.98 259.439 112.271 259.439 113.666C259.439 115.06 256.612 127.308 256.612 127.308L260.343 129.381C260.343 129.381 265.393 115.927 265.657 114.156C265.921 112.384 266.034 111.442 265.205 109.671C264.376 107.899 259.778 91.8071 259.778 91.8071C259.778 91.8071 259.326 89.8473 255.934 88.8298C252.542 87.8122 250.017 86.3048 249.414 86.3424C248.811 86.3801 246.927 89.9227 246.097 90.978C245.721 91.3925 245.796 91.581 245.344 92.2593Z" fill="url(#paint12_linear)"/>
<path d="M247.228 70.476C247.228 70.476 241.537 72.5488 240.369 73.4156C239.502 74.0562 239.314 74.6592 239.314 74.6592C239.314 74.6592 238.711 74.3954 238.748 75.2622C238.786 76.129 238.07 73.9055 237.881 73.1894C237.731 72.4734 237.693 70.476 239.238 69.0062C240.783 67.5364 242.479 66.4434 243.911 66.5188C245.343 66.5942 246.512 67.0087 247.642 68.1017C248.773 69.1946 249.037 69.1192 249.263 69.2323C249.489 69.3453 250.657 70.589 250.808 71.9458C250.959 73.3025 250.544 75.2999 250.544 75.2999C250.544 75.2999 250.28 74.9984 249.979 75.2245C249.677 75.4507 249.602 73.9432 248.622 72.0965C247.906 70.7398 247.228 70.476 247.228 70.476Z" fill="url(#paint13_linear)"/>
<path opacity="0.07" d="M243.61 137.635C242.969 139.519 240.444 143.212 238.786 145.436C237.128 147.66 232.04 152.333 232.379 158.024C232.718 163.714 236.148 178.375 236.148 179.694C236.148 181.013 234.866 187.231 233.886 189.153C232.907 191.075 232.454 194.505 232.944 194.505C233.849 194.467 234.791 194.354 235.695 194.128C236.525 193.939 237.354 193.751 238.145 193.487C238.484 193.336 238.56 192.243 238.56 192.243C238.597 191.791 238.522 191.301 238.409 190.887C238.183 190.171 237.994 189.455 237.881 188.739C237.693 183.387 237.203 170.988 237.316 170.121C237.504 168.501 236.185 160.322 237.391 156.29C238.597 152.257 243.61 137.635 243.61 137.635Z" fill="black"/>
<path opacity="0.07" d="M231.4 127.458L230.533 134.167C230.533 134.167 231.4 135.561 231.663 134.393C231.927 133.225 233.736 131.039 232.606 129.456C231.475 127.873 231.4 127.458 231.4 127.458Z" fill="black"/>
<path opacity="0.07" d="M255.896 129.305L255.594 132.509L255.218 135.599C255.218 135.599 253.936 136.541 253.974 135.335C254.012 134.129 251.826 132.32 253.484 131.114C255.142 129.908 255.896 129.305 255.896 129.305Z" fill="black"/>
<path opacity="0.07" d="M240.03 86.0033C240.256 85.9656 238.937 86.3048 240.105 85.9279C242.102 85.2873 241.273 81.5186 241.273 81.5186C241.273 81.5186 241.462 82.913 243.346 83.4783C245.23 84.0436 245.72 83.629 242.894 84.9481C240.067 86.2671 241.537 86.7194 241.725 88.453" fill="black"/>
<path opacity="0.07" d="M234.377 103.038L231.211 122.258C231.211 122.258 231.249 125.687 231.852 126.177C232.455 126.667 234.49 127.007 234.942 127.346C235.394 127.685 240.294 129.305 239.012 126.554C238.711 125.951 232.115 122.258 235.055 118.376C237.995 114.494 237.467 109.143 236.073 105.412C235.243 103.226 234.829 100.889 234.942 98.5527L234.377 103.038Z" fill="black"/>
<path d="M121.541 185.685L118.3 186.439C118.3 186.439 117.508 189.002 117.131 190.396C117.094 190.471 117.018 190.735 116.981 190.848C116.943 191.112 116.905 191.3 116.905 191.564C116.981 192.808 117.433 193.863 118.526 194.391C119.732 194.994 120.674 195.559 121.955 194.391C123.237 193.222 123.463 192.469 122.935 190.434C122.408 188.399 121.541 185.723 121.541 185.685Z" fill="#4B44BE"/>
<path d="M140.46 189.943C138.274 189.265 137.332 186.552 137.332 186.552L132.922 186.325C132.922 186.325 132.809 189.077 132.696 190.584C132.545 192.582 132.922 193.486 134.241 193.335C136.013 193.185 143.286 193.825 144.417 193.109C145.924 192.205 142.533 190.584 140.46 189.943Z" fill="#4B44BE"/>
<path d="M114.719 123.351C114.719 123.351 113.061 125.612 112.534 131.755C112.006 137.86 113.174 149.505 113.702 151.767C114.23 154.028 116.415 175.02 116.943 176.565C117.471 178.11 118.224 186.477 118.224 186.477L121.729 186.59C121.729 186.59 122.785 175.66 122.785 172.796C122.785 169.932 124.254 142.571 124.141 140.574C124.028 138.576 124.518 139.217 124.518 139.217C124.518 139.217 127.571 148.978 128.475 150.636C129.38 152.294 131 155.46 131 155.46C131 155.46 131.377 165.711 131.829 171.628C132.282 177.545 132.734 186.891 132.734 186.891L137.445 186.778C137.445 186.778 138.538 171.176 138.538 167.897C138.538 164.618 139.518 156.741 139.518 155.837C139.518 154.932 136.465 138.991 136.465 138.991L134.317 123.426L114.719 123.351Z" fill="url(#paint14_linear)"/>
<path d="M120.297 71.8699C118.677 72.4729 116.641 80.4249 116.641 80.4249L116.604 80.3872L115.699 81.2917L116.076 82.9876L117.621 109.293L125.686 107.56L132.734 100.098L137.143 102.17C137.143 102.17 137.482 111.743 137.52 112.233C137.558 112.723 138.312 127.195 138.312 128.137C138.349 129.154 142.646 133.677 143.362 133.187C145.472 131.717 141.967 128.966 141.1 128.288C140.61 127.911 139.555 114.456 139.48 112.873C139.404 111.291 141.929 107.258 137.558 101.944C134.354 98.0624 132.658 88.113 129.983 76.8069C128.588 70.9277 127.721 69.1941 126.365 69.1941C125.083 69.2318 123.35 70.7393 120.297 71.8699Z" fill="url(#paint15_linear)"/>
<path d="M118.941 94.2554C118.903 94.3307 115.888 95.7628 114.569 97.3834C113.25 99.0039 112.195 101.303 112.195 101.303C112.195 101.303 110.272 105.863 108.953 109.217C108.237 111.026 105.901 118.413 108.69 118.677C111.365 118.94 117.245 112.647 118.187 111.478L119.204 109.217C119.28 108.916 117.621 105.863 117.659 105.599C117.697 105.147 121.579 102.923 122.144 104.242C122.332 104.695 122.86 105.976 123.011 106.353C123.388 107.333 117.772 109.179 117.772 110.046C117.772 111.102 117.32 115.021 116.529 116.943C115.775 118.865 114.606 123.425 114.606 123.425L134.317 123.463C134.317 123.463 133.638 114.682 133.94 111.78C133.94 111.78 134.769 102.207 135.259 101.303C135.749 100.361 136.578 113.099 136.465 115.737C136.352 117.546 138.01 128.513 138.5 128.928C139.254 129.531 141.063 128.325 141.063 128.325C141.063 128.325 140.987 116.302 140.912 114.305C140.837 112.307 140.95 96.1397 138.312 93.2378C135.674 90.3359 134.958 90.4113 132.772 91.165C130.586 91.9187 129.493 92.6725 126.516 93.1624C124.707 93.5016 122.785 93.2378 121.089 92.4841C121.541 90.7881 120.561 93.6524 120.712 92.8609" fill="url(#paint16_linear)"/>
<path d="M121.842 67.3471C121.842 67.3471 117.923 67.4979 116.792 71.3043C115.699 75.1484 115.511 80.4999 115.473 81.3667C115.436 82.2712 115.888 88.2635 115.398 89.9594C114.946 91.4292 113.702 94.1804 112.911 96.0647C112.609 96.8185 112.383 97.6099 112.232 98.4013L112.119 99.042C112.308 99.7204 113.024 100.097 113.74 99.8711C113.777 99.8334 113.853 99.8334 113.853 99.8334C114.23 99.645 114.606 99.4566 114.983 99.2304C116.152 98.5144 117.659 96.63 118.865 96.027C120.109 95.424 121.541 92.5598 121.767 92.3337C121.955 92.1076 121.88 91.3915 121.918 90.7132C122.031 87.1329 121.39 83.8541 120.523 82.1205C119.694 80.3869 117.772 76.995 119.091 75.073C120.41 73.1133 123.199 71.5681 123.35 71.1158C123.463 70.6636 123.538 73.0002 125.046 73.8293C126.516 74.6584 128.588 76.9197 128.588 77.4096C128.588 77.8995 129.078 79.5201 127.684 82.3089C126.29 85.0978 125.159 88.6404 127.119 91.3161C129.078 93.9919 133.978 97.6853 134.317 98.5144C134.656 99.3435 134.317 103.075 134.204 105.185C134.091 107.295 138.161 101.605 138.048 98.8536C137.897 96.1024 138.387 94.9341 135.598 90.7508C132.809 86.5676 130.963 79.3693 130.925 77.598C130.887 75.8267 130.021 71.0028 128.325 69.6083C126.893 68.44 126.553 67.2717 123.576 67.2717C123.011 67.2341 122.408 67.3094 121.842 67.3471Z" fill="url(#paint17_linear)"/>
<g opacity="0.07">
<g opacity="0.07">
<g opacity="0.07">
<g opacity="0.07">
<path opacity="0.07" d="M120.335 104.053C119.732 104.317 119.167 104.581 118.639 104.882L118.036 105.184C118.036 105.184 111.78 111.741 112.044 111.364C113.25 109.857 117.018 101.867 118.262 100.021C119.581 98.0986 120.335 98.8523 121.805 103.978" fill="black"/>
</g>
</g>
</g>
</g>
<g opacity="0.07">
<path opacity="0.07" d="M120.033 186.4C120.071 186.476 120.071 186.551 120.071 186.626C120.108 187.154 120.071 188.511 119.468 189.378C118.714 190.508 120.485 192.996 120.485 193.636C120.485 194.277 119.656 194.805 119.091 194.654C118.526 194.465 116.151 193.146 117.093 190.282C117.47 189.114 117.696 188.096 117.923 187.456C118.036 187.116 118.149 186.815 118.262 186.476C118.299 186.325 118.299 186.174 118.299 186.023C118.262 185.835 118.262 185.609 118.262 185.383C118.149 184.29 113.438 149.618 113.287 148.299C113.136 147.13 112.458 139.781 112.533 135.485C112.496 135.108 112.496 134.731 112.496 134.392C112.496 134.279 112.533 133.864 112.533 133.714C112.571 133.337 112.571 132.922 112.646 132.545C112.571 132.206 112.609 132.206 112.646 131.716C112.684 131.226 112.646 130.887 112.684 130.586C113.136 127.684 114.229 124.367 114.719 123.425L114.87 122.898C114.87 122.898 116.038 118.488 116.453 117.697C116.792 116.943 117.772 113.061 117.696 112.27C117.659 111.818 119.242 110.084 119.242 110.084L119.581 109.82C119.732 109.782 119.92 109.82 120.033 109.858C120.372 110.009 121.729 108.84 121.917 109.594C123.5 114.644 124.141 116.792 121.352 119.807C118.563 122.822 121.126 125.498 121.164 127.646C121.277 132.885 118.752 132.319 118.601 135.56C118.45 138.802 119.166 141.176 119.204 142.872C119.317 148.487 119.242 149.58 118.94 151.766C118.639 153.952 117.131 158.135 118.827 166.351C120.523 174.567 120.259 175.283 120.071 179.918C119.882 184.554 120.033 186.4 120.033 186.4Z" fill="black"/>
</g>
<path d="M117.433 101.717L117.471 101.68C117.659 101.567 118.828 101.001 119.657 100.662C120.561 100.285 121.692 103.413 121.956 104.016C121.993 104.054 121.993 104.054 121.767 104.092C121.089 104.167 120.448 104.28 119.807 104.469C118.865 104.695 117.81 105.449 117.772 105.449C117.735 105.486 117.433 104.883 116.906 103.489C116.792 103.15 116.529 102.32 116.755 102.132L117.433 101.717Z" fill="#EFEFEF"/>
<path opacity="0.07" d="M124.518 85.2106C125.121 85.4367 125.799 85.286 126.252 84.8337C127.043 84.0423 125.95 86.7935 126.139 87.3965C126.327 87.9995 124.518 85.2106 124.518 85.2106Z" fill="black"/>
<path d="M119.167 108.954C119.167 108.954 122.898 106.504 122.935 106.617C123.048 106.843 123.35 107.71 123.35 107.71C123.35 107.71 123.651 108.275 123.538 108.464C123.425 108.652 119.92 110.16 119.92 110.16C119.769 110.122 119.656 110.047 119.581 109.934C119.43 109.594 119.317 109.293 119.167 108.954Z" fill="#EFEFEF"/>
<defs>
<linearGradient id="paint0_linear" x1="184.424" y1="20.5702" x2="184.537" y2="104.145" gradientUnits="userSpaceOnUse">
<stop stop-color="white"/>
<stop offset="1" stop-color="white" stop-opacity="0"/>
</linearGradient>
<linearGradient id="paint1_linear" x1="253.889" y1="174.062" x2="285.972" y2="188.922" gradientUnits="userSpaceOnUse">
<stop stop-color="#7A5BF5"/>
<stop offset="1" stop-color="#CD94EF"/>
</linearGradient>
<linearGradient id="paint2_linear" x1="258.852" y1="170.125" x2="280.175" y2="180.002" gradientUnits="userSpaceOnUse">
<stop stop-color="#7A5BF5"/>
<stop offset="1" stop-color="#E5A4ED"/>
</linearGradient>
<linearGradient id="paint3_linear" x1="76.1136" y1="63.9667" x2="97.0991" y2="63.9667" gradientUnits="userSpaceOnUse">
<stop stop-color="#4B46BD"/>
<stop offset="1" stop-color="#5CD4EE"/>
</linearGradient>
<linearGradient id="paint4_linear" x1="76.8521" y1="66.5245" x2="98.2965" y2="66.5245" gradientUnits="userSpaceOnUse">
<stop stop-color="#F71F68"/>
<stop offset="1" stop-color="#F9C448"/>
</linearGradient>
<linearGradient id="paint5_linear" x1="96.772" y1="65.1383" x2="108.474" y2="50.5374" gradientUnits="userSpaceOnUse">
<stop stop-color="#4B46BD"/>
<stop offset="1" stop-color="#5CD4EE"/>
</linearGradient>
<linearGradient id="paint6_linear" x1="64.9304" y1="65.0256" x2="76.6325" y2="50.4248" gradientUnits="userSpaceOnUse">
<stop stop-color="#4B46BD"/>
<stop offset="1" stop-color="#5CD4EE"/>
</linearGradient>
<linearGradient id="paint7_linear" x1="107.965" y1="67.9468" x2="108.717" y2="54.0421" gradientUnits="userSpaceOnUse">
<stop stop-color="#4B46BD"/>
<stop offset="1" stop-color="#5CD4EE"/>
</linearGradient>
<linearGradient id="paint8_linear" x1="100.18" y1="65.6553" x2="110.357" y2="52.9571" gradientUnits="userSpaceOnUse">
<stop stop-color="#F71F68"/>
<stop offset="1" stop-color="#F9C448"/>
</linearGradient>
<linearGradient id="paint9_linear" x1="67.9653" y1="65.1557" x2="79.2862" y2="51.0306" gradientUnits="userSpaceOnUse">
<stop stop-color="#F71F68"/>
<stop offset="1" stop-color="#F9C448"/>
</linearGradient>
<linearGradient id="paint10_linear" x1="228.079" y1="155.995" x2="255.917" y2="155.995" gradientUnits="userSpaceOnUse">
<stop stop-color="#4F68CA"/>
<stop offset="1" stop-color="#5ACEED"/>
</linearGradient>
<linearGradient id="paint11_linear" x1="224.9" y1="103.158" x2="264.02" y2="103.158" gradientUnits="userSpaceOnUse">
<stop stop-color="#F87B58"/>
<stop offset="0.41" stop-color="#F89453"/>
<stop offset="0.71" stop-color="#F8C548"/>
<stop offset="1" stop-color="#F89C51"/>
</linearGradient>
<linearGradient id="paint12_linear" x1="222.432" y1="108.306" x2="265.899" y2="108.306" gradientUnits="userSpaceOnUse">
<stop stop-color="#E1A1ED"/>
<stop offset="1" stop-color="#7658F4"/>
</linearGradient>
<linearGradient id="paint13_linear" x1="237.796" y1="70.9946" x2="250.867" y2="70.9946" gradientUnits="userSpaceOnUse">
<stop stop-color="#4F68CA"/>
<stop offset="1" stop-color="#5ACEED"/>
</linearGradient>
<linearGradient id="paint14_linear" x1="112.43" y1="155.078" x2="139.595" y2="155.078" gradientUnits="userSpaceOnUse">
<stop stop-color="#4F68CA"/>
<stop offset="1" stop-color="#5ACEED"/>
</linearGradient>
<linearGradient id="paint15_linear" x1="115.72" y1="101.224" x2="144.018" y2="101.224" gradientUnits="userSpaceOnUse">
<stop stop-color="#F87B58"/>
<stop offset="0.5" stop-color="#F8C548"/>
<stop offset="1" stop-color="#F89C51"/>
</linearGradient>
<linearGradient id="paint16_linear" x1="107.334" y1="109.863" x2="141.052" y2="109.863" gradientUnits="userSpaceOnUse">
<stop stop-color="#E1A1ED"/>
<stop offset="1" stop-color="#7658F4"/>
</linearGradient>
<linearGradient id="paint17_linear" x1="112.19" y1="86.4212" x2="138.069" y2="86.4212" gradientUnits="userSpaceOnUse">
<stop stop-color="#4B44BE"/>
<stop offset="1" stop-color="#5BD3EF"/>
</linearGradient>
</defs>
</svg>
