<svg width="24" height="24" viewBox="0 0 24 24" fill="none" xmlns="http://www.w3.org/2000/svg">
<path fill-rule="evenodd" clip-rule="evenodd" d="M15.33 5.43981C16.1659 4.81287 16.7517 4.37451 17.2138 4.08957C17.6856 3.79862 17.9076 3.74762 18.026 3.75008C18.4011 3.75788 18.7529 3.93377 18.9842 4.22919C19.0572 4.32242 19.1496 4.53062 19.1999 5.08265C19.2493 5.62331 19.25 6.35491 19.25 7.39981V7.99984L19.25 13.9998L19.25 14.5998C19.25 15.6447 19.2493 16.3763 19.1999 16.917C19.1496 17.469 19.0572 17.6772 18.9842 17.7704C18.7529 18.0659 18.4011 18.2417 18.026 18.2495C17.9076 18.252 17.6856 18.201 17.2138 17.9101C16.7517 17.6251 16.1659 17.1868 15.33 16.5598L12.75 14.6248L12.75 7.37481L15.33 5.43981ZM20.75 14.6748C20.75 15.655 20.7493 16.4436 20.6937 17.0532C20.6378 17.6669 20.5175 18.2453 20.1652 18.6952C19.6563 19.3451 18.8824 19.7321 18.0572 19.7492C17.4859 19.7611 16.951 19.5103 16.4265 19.1868C15.8991 18.8617 15.2588 18.3814 14.4614 17.7833L14.4613 17.7833L14.4612 17.7832L14.43 17.7598L11.7502 15.75H9.75V19.5001C9.75 20.7427 8.74264 21.7501 7.5 21.7501C6.25736 21.7501 5.25 20.7427 5.25 19.5001L5.25 15.6911C2.98301 15.3315 1.25 13.3681 1.25 11C1.25 8.37663 3.37665 6.24998 6 6.24998L11.7498 6.24998L14.43 4.23981L14.4612 4.21639C15.2587 3.61828 15.8991 3.13799 16.4265 2.81278C16.951 2.48934 17.4859 2.23853 18.0572 2.25041C18.8824 2.26756 19.6563 2.65452 20.1652 3.30444C20.5175 3.75436 20.6378 4.33271 20.6937 4.94641C20.7493 5.55603 20.75 6.34469 20.75 7.32486C22.4617 7.67231 23.75 9.18562 23.75 10.9998C23.75 12.8141 22.4617 14.3274 20.75 14.6748ZM20.75 13.1218C21.6239 12.8129 22.25 11.9795 22.25 10.9998C22.25 10.0202 21.6239 9.18675 20.75 8.87787V13.1218ZM11.25 14.25L11.25 7.74998L6 7.74998C4.20507 7.74998 2.75 9.20506 2.75 11C2.75 12.7949 4.20508 14.25 6 14.25L11.25 14.25ZM6.75 15.7501L6.75 19.5001C6.75 19.9143 7.08579 20.2501 7.5 20.2501C7.91422 20.2501 8.25 19.9143 8.25 19.5001L8.25 15.7501H6.75Z" fill="#333333"/>
</svg>
