<svg width="83" height="83" viewBox="0 0 83 83" fill="none" xmlns="http://www.w3.org/2000/svg">
<circle cx="41.5" cy="41.5" r="41.5" fill="url(#paint0_linear)"/>
<path d="M48.7461 35.0936V24.8965C48.7461 23.3601 47.5006 22.1145 45.9641 22.1145H26.3294C24.7929 22.1145 23.5474 23.3601 23.5474 24.8965V35.0936C23.5474 36.6301 24.7929 37.8756 26.3294 37.8756H26.9072L24.6673 41.7955L31.947 37.8756H45.9642C47.5006 37.8756 48.7461 36.6301 48.7461 35.0936Z" fill="#E6E6E6"/>
<path d="M55.6702 41.319H36.0355C34.499 41.319 33.2534 42.5645 33.2534 44.101V54.2981C33.2534 55.8345 34.499 57.0801 36.0355 57.0801H50.0527L57.3323 60.9999L55.0924 57.0801H55.6702C57.2067 57.0801 58.4523 55.8345 58.4523 54.2981V44.1009C58.4522 42.5644 57.2067 41.319 55.6702 41.319Z" fill="#E6E6E6"/>
<path d="M48.7462 23.7821V33.9793C48.7462 35.5155 47.5003 36.7605 45.9641 36.7605H31.947L24.6673 40.6803L26.9072 36.7605H26.3295C24.7924 36.7605 23.5474 35.5155 23.5474 33.9793V23.7821C23.5475 22.245 24.7925 21 26.3296 21H45.9642C47.5003 21 48.7462 22.245 48.7462 23.7821Z" fill="#8AF9BD"/>
<path d="M58.4528 42.9865V53.1836C58.4528 54.7198 57.2068 55.9648 55.6706 55.9648H55.0929L57.3328 59.8846L50.0531 55.9648H36.036C34.4989 55.9648 33.2539 54.7198 33.2539 53.1836V42.9865C33.2539 41.4494 34.4989 40.2043 36.036 40.2043H55.6706C57.2068 40.2043 58.4528 41.4494 58.4528 42.9865Z" fill="#AFDAF9"/>
<path d="M45.8532 53.7122C48.848 53.7122 51.2757 51.2845 51.2757 48.2897C51.2757 45.2949 48.848 42.8672 45.8532 42.8672C42.8584 42.8672 40.4307 45.2949 40.4307 48.2897C40.4307 51.2845 42.8584 53.7122 45.8532 53.7122Z" fill="#F9DD53"/>
<path d="M43.4519 47.694C43.2671 47.694 43.087 47.6193 42.9573 47.4896C42.8266 47.359 42.752 47.1788 42.752 46.994C42.752 46.8102 42.8266 46.6301 42.9573 46.4994C43.087 46.3687 43.2671 46.2941 43.4519 46.2941C43.6367 46.2941 43.8168 46.3687 43.9466 46.4994C44.0772 46.6301 44.1519 46.8102 44.1519 46.994C44.1519 47.1788 44.0772 47.359 43.9466 47.4896C43.8167 47.6193 43.6367 47.694 43.4519 47.694Z" fill="#4D4D4D"/>
<path d="M48.2537 47.694C48.0698 47.694 47.8897 47.6193 47.759 47.4896C47.6284 47.359 47.5537 47.1788 47.5537 46.994C47.5537 46.8102 47.6284 46.6291 47.759 46.4994C47.8897 46.3687 48.0698 46.2941 48.2537 46.2941C48.4385 46.2941 48.6186 46.3687 48.7493 46.4994C48.879 46.6291 48.9536 46.8102 48.9536 46.994C48.9536 47.1788 48.879 47.359 48.7493 47.4896C48.6187 47.6193 48.4385 47.694 48.2537 47.694Z" fill="#4D4D4D"/>
<path d="M43.543 49.0662C43.543 50.3419 44.5772 51.3761 45.8529 51.3761C47.1286 51.3761 48.1628 50.3419 48.1628 49.0662H43.543Z" fill="#4D4D4D"/>
<path d="M36.1467 33.7457C38.8322 33.7457 41.0092 31.5687 41.0092 28.8832C41.0092 26.1977 38.8322 24.0206 36.1467 24.0206C33.4612 24.0206 31.2842 26.1977 31.2842 28.8832C31.2842 31.5687 33.4612 33.7457 36.1467 33.7457Z" fill="#F9DD53"/>
<path d="M33.9929 28.4217C33.8091 28.4217 33.629 28.347 33.4983 28.2163C33.3676 28.0866 33.293 27.9056 33.293 27.7217C33.293 27.5378 33.3676 27.3568 33.4983 27.2271C33.629 27.0964 33.8091 27.0217 33.9929 27.0217C34.1777 27.0217 34.3579 27.0964 34.4885 27.2271C34.6182 27.3568 34.6929 27.5378 34.6929 27.7217C34.6929 27.9056 34.6182 28.0866 34.4885 28.2163C34.3579 28.347 34.1777 28.4217 33.9929 28.4217Z" fill="#4D4D4D"/>
<path d="M38.2996 28.4217C38.1157 28.4217 37.9356 28.347 37.8049 28.2163C37.6743 28.0866 37.5996 27.9056 37.5996 27.7217C37.5996 27.5369 37.6743 27.3568 37.8049 27.2271C37.9356 27.0964 38.1157 27.0217 38.2996 27.0217C38.4844 27.0217 38.6645 27.0964 38.7952 27.2271C38.9249 27.3568 38.9995 27.5369 38.9995 27.7217C38.9995 27.9065 38.9249 28.0866 38.7952 28.2163C38.6646 28.347 38.4845 28.4217 38.2996 28.4217Z" fill="#4D4D4D"/>
<path d="M36.1468 31.0111C35.5084 31.0111 34.8698 30.7681 34.3838 30.2819C34.2562 30.1543 34.2562 29.9475 34.3838 29.8199C34.5114 29.6923 34.7182 29.6923 34.8457 29.8199C35.5634 30.5374 36.7306 30.5373 37.4481 29.8199C37.5757 29.6923 37.7825 29.6923 37.9101 29.8199C38.0377 29.9475 38.0377 30.1543 37.9101 30.2819C37.424 30.7681 36.7853 31.0111 36.1468 31.0111Z" fill="#4D4D4D"/>
<path opacity="0.23" d="M37.9241 40.2043L36.4402 43.0556L35.3361 45.1779L33.2539 49.1789V42.9865C33.2539 41.4494 34.4989 40.2043 36.036 40.2043H37.9241Z" fill="#F2F2F2"/>
<path opacity="0.23" d="M58.4527 42.9865V53.1836C58.4527 54.7198 57.2068 55.9648 55.6706 55.9648H55.0929L57.3328 59.8846L50.0531 55.9648H42.3628L50.5636 40.2043H55.6706C57.2068 40.2043 58.4527 41.4494 58.4527 42.9865Z" fill="#F2F2F2"/>
<path opacity="0.23" d="M28.4206 21L26.2796 25.1139L25.1232 27.337L23.5479 30.3637V23.7821C23.5479 22.245 24.7929 21 26.33 21H28.4206Z" fill="#F2F2F2"/>
<path opacity="0.23" d="M48.7466 23.7821V33.9793C48.7466 35.5155 47.5007 36.7605 45.9645 36.7605H34.667L42.8679 21H45.9646C47.5007 21 48.7466 22.245 48.7466 23.7821Z" fill="#F2F2F2"/>
<defs>
<linearGradient id="paint0_linear" x1="10" y1="15" x2="72" y2="68" gradientUnits="userSpaceOnUse">
<stop stop-color="#F8CAC7"/>
<stop offset="0.911953" stop-color="#F03838"/>
</linearGradient>
</defs>
</svg>
