<svg width="274" height="379" viewBox="0 0 274 379" fill="none" xmlns="http://www.w3.org/2000/svg">
<path d="M196.265 355.669C191.109 347.105 187.002 344.833 174.243 344.484C161.484 344.134 144.531 344.309 144.531 344.309L144.356 362.398C144.356 362.398 158.426 370.525 165.941 374.545C166.378 374.807 167.601 375.506 168.475 376.031C169.786 376.642 171.184 377.167 172.583 377.516C180.011 379.089 186.739 378.303 191.546 373.496C196.876 368.166 201.421 364.233 196.265 355.669Z" fill="#4B49BB"/>
<path d="M100.05 339.59C99.6134 339.939 98.4774 340.813 97.6909 341.425C96.6423 342.386 95.681 343.522 94.8071 344.658C90.6125 350.95 88.7773 357.504 91.4864 363.796C94.4576 370.7 96.4675 376.468 106.255 374.807C116.042 373.147 119.8 370.176 124.869 358.553C129.937 346.93 136.142 331.026 136.054 331.026L119.363 324.122C119.363 324.122 106.604 334.172 100.05 339.59Z" fill="#4B49BB"/>
<path d="M145.667 345.095C145.667 345.095 145.929 363.359 142.958 363.796C139.987 364.233 99.0018 358.291 82.6603 357.417C66.3187 356.543 29.2662 345.969 11.0895 325.433C-4.64037 307.693 -2.19351 288.031 9.4291 288.031C21.0517 288.031 31.7131 278.156 61.2502 292.225C90.7874 306.295 122.072 308.654 139.637 307.256C157.202 305.858 206.402 296.77 210.247 293.973C214.092 291.177 232.531 283.137 258.223 285.933C283.915 288.73 271.768 309.091 266.35 316.956C258.747 327.88 240.745 339.59 225.715 340.114C210.684 340.638 145.667 345.095 145.667 345.095Z" fill="url(#paint0_linear)"/>
<path d="M115.256 25.6923C106.605 28.8382 95.5938 71.6584 95.5938 71.6584L95.419 71.4836L94.1956 77.426L92.71 85.2035L95.5938 131.694L123.558 145.676L187.788 162.979L205.528 188.234C205.528 188.234 245.289 228.695 245.552 231.491C245.814 234.288 202.819 248.532 198.712 249.144C188.837 250.629 261.893 232.715 238.473 204.313C228.511 192.166 213.917 155.638 184.992 131.432C168.213 117.45 172.932 77.6882 166.99 52.5204C159.562 21.0607 155.018 11.6228 147.59 11.6228C140.861 11.6228 131.51 19.6625 115.256 25.6923Z" fill="url(#paint1_linear)"/>
<path d="M206.14 127.324C192.682 115.002 188.138 112.031 176.34 116.226C164.543 120.421 158.775 124.266 142.696 126.887C132.821 128.635 122.597 127.324 113.421 123.304L80.3009 126.625C76.1062 126.101 29.0041 214.537 27.868 232.889C27.1689 244.162 52.7736 261.552 59.9395 263.3C62.8233 263.999 67.9792 236.21 69.6395 233.675L58.8908 230.355C60.8133 225.548 67.2801 213.664 71.5621 207.284C72.8729 205.274 83.0973 188.408 84.4955 181.942C84.7577 182.553 86.2432 194.788 87.6415 198.72C90.2631 205.973 93.846 210.081 93.846 215.848C93.846 221.616 93.1469 244.512 88.9523 254.823C84.7577 265.135 78.6405 288.992 78.6405 288.992L184.555 288.38C184.555 288.38 180.71 242.851 182.283 227.209C182.283 227.209 180.622 220.917 183.768 211.828C188.924 196.798 190.41 174.426 189.536 170.931C188.225 165.425 220.646 212.003 227.724 223.801C230.696 228.694 190.41 237.346 187.089 241.103C183.594 245.036 190.497 255.697 190.497 255.697C190.497 255.697 260.757 247.133 260.408 236.384C260.058 225.636 221.782 141.568 206.14 127.324Z" fill="url(#paint2_linear)"/>
<path d="M123.733 0.524328C123.733 0.524328 104.07 1.31082 98.3901 21.9344C92.7099 42.558 91.9234 71.3086 91.7486 75.7654C91.5738 80.4844 93.7586 108.099 83.1846 119.634C74.0962 129.596 77.7665 139.209 75.4945 147.161L74.4458 160.357C74.6206 161.93 75.7566 163.241 77.2422 163.765C78.6404 164.202 83.5342 161.93 84.408 161.58C96.6424 156.687 96.6424 152.754 101.274 148.822C105.119 145.588 115.693 138.073 118.839 135.102C121.985 132.131 124.17 129.509 124.344 125.751C124.956 106.613 121.635 88.961 117.441 79.6105C113.246 70.26 105.206 54.4427 111.935 43.9562C118.664 33.4696 130.811 22.9831 131.51 20.3614C132.209 17.7398 132.559 30.4984 139.987 34.9552C147.415 39.412 153.619 45.6166 155.891 51.6463C157.814 56.7148 160.348 65.3663 153.357 80.3096C146.366 95.253 140.686 114.478 150.561 128.723C160.436 142.967 181.234 158.347 184.642 165.513C188.487 173.465 184.817 192.166 184.118 203.439C183.419 214.712 206.14 183.864 205.44 169.183C204.741 154.502 207.188 148.21 193.119 125.664C179.049 103.118 169.874 64.4924 169.524 55.1419C169.174 45.7913 164.98 19.8371 156.503 12.4091C149.163 6.11716 147.59 0 132.559 0C129.588 0 126.616 0.174776 123.733 0.524328Z" fill="url(#paint3_linear)"/>
<path opacity="0.07" d="M78.9028 313.024L178.176 313.548C178.176 313.548 166.553 322.637 160.96 323.685C155.367 324.734 131.423 336.619 122.509 332.075C116.218 328.666 78.9028 313.024 78.9028 313.024Z" fill="black"/>
<path opacity="0.07" d="M134.219 90.0972C134.219 90.0972 143.482 92.4567 147.327 87.0386C155.979 74.8043 148.114 93.2432 148.114 93.2432C148.114 93.2432 145.58 100.409 145.754 103.992C145.929 107.575 135.792 90.6215 134.219 90.0972Z" fill="black"/>
<path opacity="0.07" d="M97.1665 153.016C96.0304 154.415 94.3701 155.551 93.4962 159.134C92.0106 164.901 90.4376 171.368 86.4178 177.31C84.0583 180.806 85.3691 194.351 89.3016 202.915C90.4376 205.362 93.9331 211.741 93.8457 213.227L93.5836 225.636H104.245C104.245 225.636 113.333 226.597 111.411 219.082C109.75 212.44 101.099 187.709 106.954 182.291C117.965 172.242 104.07 152.143 109.226 145.676C113.683 140.083 120.062 136.063 120.062 134.228C120.062 133.529 118.402 135.801 117.266 136.587C115.081 138.16 113.945 139.384 112.11 140.607C110.1 141.918 107.041 144.103 105.031 145.588C102.148 147.773 99.526 150.22 97.1665 153.016Z" fill="black"/>
<path d="M55.6568 232.627C55.6568 232.627 55.5694 226.16 61.9487 225.898C68.3281 225.636 203.43 225.811 203.43 225.811C203.43 225.811 209.372 226.51 209.547 231.316C209.722 236.123 209.722 307.519 209.722 307.519C209.722 307.519 209.809 313.024 203.954 313.199C198.099 313.374 60.3758 313.374 60.3758 313.374C60.3758 313.374 55.2199 312.063 55.3073 306.907C55.3946 301.751 55.6568 232.627 55.6568 232.627Z" fill="white"/>
<path d="M133.083 275.447C136.316 275.447 138.938 272.826 138.938 269.592C138.938 266.358 136.316 263.737 133.083 263.737C129.849 263.737 127.228 266.358 127.228 269.592C127.228 272.826 129.849 275.447 133.083 275.447Z" fill="#77C7E8"/>
<defs>
<linearGradient id="paint0_linear" x1="274" y1="324.241" x2="3.26633e-05" y2="324.241" gradientUnits="userSpaceOnUse">
<stop stop-color="#4B45BD"/>
<stop offset="1" stop-color="#58CAEA"/>
</linearGradient>
<linearGradient id="paint1_linear" x1="92.71" y1="130.426" x2="245.553" y2="130.426" gradientUnits="userSpaceOnUse">
<stop stop-color="#F87B58"/>
<stop offset="0.5" stop-color="#F8C548"/>
<stop offset="1" stop-color="#F89C51"/>
</linearGradient>
<linearGradient id="paint2_linear" x1="27.854" y1="201.714" x2="260.409" y2="201.714" gradientUnits="userSpaceOnUse">
<stop stop-color="#4B45BD"/>
<stop offset="1" stop-color="#58CAEA"/>
</linearGradient>
<linearGradient id="paint3_linear" x1="74.4458" y1="102.933" x2="205.456" y2="102.933" gradientUnits="userSpaceOnUse">
<stop stop-color="#FD5D93"/>
<stop offset="1" stop-color="#EC250D"/>
</linearGradient>
</defs>
</svg>
