<svg width="365" height="204" viewBox="0 0 365 204" fill="none" xmlns="http://www.w3.org/2000/svg">
<g clip-path="url(#clip0)">
<path d="M8.5151 86.5986C4.35784 67.3545 13.0747 45.7301 31.3129 38.3208C45.6622 32.4873 67.6218 30.5427 97.0243 37.6503C174.805 56.425 168.1 34.9682 198.274 18.2051C224.826 3.45356 257.28 -14.6506 313.604 19.5461C356.316 45.4954 331.037 85.9281 359.87 110.737C378.41 126.696 347.13 203.94 257.28 187.177C167.429 170.414 147.079 193.95 106.412 202.599C65.5097 211.316 -18.9429 159.451 3.82142 135.547C17.2319 121.466 11.1301 98.668 8.5151 86.5986Z" fill="#F8F8FF"/>
<path d="M31.8161 91.2915C28.2624 74.7631 35.7387 56.1561 51.429 49.7861C63.7666 44.7571 82.6419 43.1144 107.921 49.2161C174.772 65.3422 169.005 46.9028 194.955 32.4865C217.786 19.8136 245.68 4.25747 294.092 33.6264C330.803 55.9214 309.078 90.6881 333.854 112.011C349.779 125.723 322.891 192.138 245.68 177.722C168.469 163.306 150.968 183.522 116 190.965C80.798 198.475 8.18016 153.919 27.7595 133.367C39.2925 121.264 34.0289 101.685 31.8161 91.2915Z" fill="#F5F5FC"/>
<path d="M57.8996 92.3309C54.8487 78.1829 61.2523 62.2579 74.6627 56.7931C85.2235 52.5018 101.383 51.0937 123.041 56.2902C180.304 70.1031 175.342 54.3122 197.57 41.9746C217.116 31.1121 240.986 17.8021 282.458 42.9468C313.906 62.0232 295.299 91.7945 316.521 110.066C330.166 121.8 307.134 178.661 241.02 166.323C174.906 153.986 159.886 171.319 129.947 177.689C99.8409 184.092 37.6833 145.939 54.4464 128.338C64.3367 117.979 59.8106 101.215 57.8996 92.3309Z" fill="#BAC6F2"/>
<path d="M68.5278 103.361C70.0091 103.361 71.2099 102.16 71.2099 100.679C71.2099 99.1974 70.0091 97.9966 68.5278 97.9966C67.0465 97.9966 65.8457 99.1974 65.8457 100.679C65.8457 102.16 67.0465 103.361 68.5278 103.361Z" fill="white"/>
<path d="M89.4818 85.927C90.315 85.927 90.9905 85.2516 90.9905 84.4183C90.9905 83.5851 90.315 82.9097 89.4818 82.9097C88.6486 82.9097 87.9731 83.5851 87.9731 84.4183C87.9731 85.2516 88.6486 85.927 89.4818 85.927Z" fill="white"/>
<path d="M94.6783 126.83C95.6041 126.83 96.3546 126.079 96.3546 125.153C96.3546 124.228 95.6041 123.477 94.6783 123.477C93.7525 123.477 93.002 124.228 93.002 125.153C93.002 126.079 93.7525 126.83 94.6783 126.83Z" fill="white"/>
<path d="M80.4294 150.298C81.4478 150.298 82.2733 149.472 82.2733 148.454C82.2733 147.436 81.4478 146.61 80.4294 146.61C79.411 146.61 78.5854 147.436 78.5854 148.454C78.5854 149.472 79.411 150.298 80.4294 150.298Z" fill="white"/>
<path d="M123.008 158.009C124.026 158.009 124.852 157.183 124.852 156.165C124.852 155.146 124.026 154.321 123.008 154.321C121.99 154.321 121.164 155.146 121.164 156.165C121.164 157.183 121.99 158.009 123.008 158.009Z" fill="white"/>
<path d="M202.633 157.338C203.744 157.338 204.644 156.438 204.644 155.327C204.644 154.216 203.744 153.315 202.633 153.315C201.522 153.315 200.621 154.216 200.621 155.327C200.621 156.438 201.522 157.338 202.633 157.338Z" fill="white"/>
<path d="M235.656 114.09C236.674 114.09 237.5 113.264 237.5 112.246C237.5 111.227 236.674 110.402 235.656 110.402C234.638 110.402 233.812 111.227 233.812 112.246C233.812 113.264 234.638 114.09 235.656 114.09Z" fill="white"/>
<path d="M260.968 88.6096C261.709 88.6096 262.309 88.0092 262.309 87.2685C262.309 86.5279 261.709 85.9275 260.968 85.9275C260.227 85.9275 259.627 86.5279 259.627 87.2685C259.627 88.0092 260.227 88.6096 260.968 88.6096Z" fill="white"/>
<path d="M281.587 94.6447C282.605 94.6447 283.431 93.8191 283.431 92.8007C283.431 91.7823 282.605 90.9568 281.587 90.9568C280.569 90.9568 279.743 91.7823 279.743 92.8007C279.743 93.8191 280.569 94.6447 281.587 94.6447Z" fill="white"/>
<path d="M296.841 71.1756C297.767 71.1756 298.518 70.4251 298.518 69.4993C298.518 68.5735 297.767 67.823 296.841 67.823C295.916 67.823 295.165 68.5735 295.165 69.4993C295.165 70.4251 295.916 71.1756 296.841 71.1756Z" fill="white"/>
<path d="M293.824 139.234C294.75 139.234 295.5 138.484 295.5 137.558C295.5 136.632 294.75 135.882 293.824 135.882C292.898 135.882 292.147 136.632 292.147 137.558C292.147 138.484 292.898 139.234 293.824 139.234Z" fill="white"/>
<path d="M266.165 160.02C267.183 160.02 268.009 159.195 268.009 158.176C268.009 157.158 267.183 156.332 266.165 156.332C265.146 156.332 264.321 157.158 264.321 158.176C264.321 159.195 265.146 160.02 266.165 160.02Z" fill="white"/>
<path d="M165.754 136.217C167.42 136.217 168.771 134.866 168.771 133.199C168.771 131.533 167.42 130.182 165.754 130.182C164.087 130.182 162.736 131.533 162.736 133.199C162.736 134.866 164.087 136.217 165.754 136.217Z" fill="white"/>
<path d="M180.505 103.361C182.172 103.361 183.523 102.01 183.523 100.344C183.523 98.6773 182.172 97.3264 180.505 97.3264C178.839 97.3264 177.488 98.6773 177.488 100.344C177.488 102.01 178.839 103.361 180.505 103.361Z" fill="white"/>
<path d="M219.06 88.9444C220.727 88.9444 222.078 87.5935 222.078 85.927C222.078 84.2606 220.727 82.9097 219.06 82.9097C217.394 82.9097 216.043 84.2606 216.043 85.927C216.043 87.5935 217.394 88.9444 219.06 88.9444Z" fill="white"/>
<path d="M218.893 134.541C220.652 134.541 222.078 133.115 222.078 131.356C222.078 129.597 220.652 128.171 218.893 128.171C217.134 128.171 215.708 129.597 215.708 131.356C215.708 133.115 217.134 134.541 218.893 134.541Z" fill="white"/>
<path d="M251.748 130.182C253.507 130.182 254.933 128.756 254.933 126.997C254.933 125.238 253.507 123.812 251.748 123.812C249.989 123.812 248.563 125.238 248.563 126.997C248.563 128.756 249.989 130.182 251.748 130.182Z" fill="white"/>
<path d="M153.349 116.437C155.015 116.437 156.366 115.086 156.366 113.419C156.366 111.753 155.015 110.402 153.349 110.402C151.682 110.402 150.332 111.753 150.332 113.419C150.332 115.086 151.682 116.437 153.349 116.437Z" fill="white"/>
<path d="M172.794 143.257C174.461 143.257 175.812 141.906 175.812 140.24C175.812 138.574 174.461 137.223 172.794 137.223C171.128 137.223 169.777 138.574 169.777 140.24C169.777 141.906 171.128 143.257 172.794 143.257Z" fill="white"/>
<path d="M194.586 120.125C196.253 120.125 197.604 118.774 197.604 117.107C197.604 115.441 196.253 114.09 194.586 114.09C192.92 114.09 191.569 115.441 191.569 117.107C191.569 118.774 192.92 120.125 194.586 120.125Z" fill="white"/>
<path d="M116.638 128.17C118.212 128.17 119.488 126.894 119.488 125.32C119.488 123.747 118.212 122.471 116.638 122.471C115.064 122.471 113.788 123.747 113.788 125.32C113.788 126.894 115.064 128.17 116.638 128.17Z" fill="white"/>
<path d="M145.47 91.5933C147.044 91.5933 148.32 90.3174 148.32 88.7435C148.32 87.1697 147.044 85.8938 145.47 85.8938C143.896 85.8938 142.621 87.1697 142.621 88.7435C142.621 90.3174 143.896 91.5933 145.47 91.5933Z" fill="white"/>
<path d="M57.5981 147.415L68.5277 100.679L115.464 125.488L153.014 113.419L165.754 133.199L172.794 141.246L194.586 116.772L218.725 131.858L251.246 126.829" stroke="white" stroke-width="1.00579" stroke-linecap="round" stroke-linejoin="round"/>
<path d="M154.321 113.419L180.103 99.975L219.06 85.9275" stroke="white" stroke-width="1.00579" stroke-miterlimit="10"/>
<path d="M118.314 69.5C119.148 69.5 119.823 68.8246 119.823 67.9913C119.823 67.1581 119.148 66.4827 118.314 66.4827C117.481 66.4827 116.806 67.1581 116.806 67.9913C116.806 68.8246 117.481 69.5 118.314 69.5Z" fill="white"/>
<path d="M227.777 43.0139C228.518 43.0139 229.118 42.4135 229.118 41.6728C229.118 40.9322 228.518 40.3318 227.777 40.3318C227.036 40.3318 226.436 40.9322 226.436 41.6728C226.436 42.4135 227.036 43.0139 227.777 43.0139Z" fill="white"/>
<path d="M147.817 76.2051C148.65 76.2051 149.326 75.5296 149.326 74.6964C149.326 73.8632 148.65 73.1877 147.817 73.1877C146.984 73.1877 146.309 73.8632 146.309 74.6964C146.309 75.5296 146.984 76.2051 147.817 76.2051Z" fill="white"/>
<path d="M195.257 66.4824C195.998 66.4824 196.598 65.882 196.598 65.1413C196.598 64.4007 195.998 63.8003 195.257 63.8003C194.516 63.8003 193.916 64.4007 193.916 65.1413C193.916 65.882 194.516 66.4824 195.257 66.4824Z" fill="white"/>
<path d="M115.967 100.679C116.615 100.679 117.141 100.154 117.141 99.5054C117.141 98.8574 116.615 98.332 115.967 98.332C115.319 98.332 114.794 98.8574 114.794 99.5054C114.794 100.154 115.319 100.679 115.967 100.679Z" fill="white"/>
<path d="M248.899 54.4126C250.01 54.4126 250.91 53.5119 250.91 52.401C250.91 51.29 250.01 50.3894 248.899 50.3894C247.788 50.3894 246.887 51.29 246.887 52.401C246.887 53.5119 247.788 54.4126 248.899 54.4126Z" fill="white"/>
<path d="M210.679 72.1819C211.42 72.1819 212.02 71.5814 212.02 70.8408C212.02 70.1002 211.42 69.4998 210.679 69.4998C209.938 69.4998 209.338 70.1002 209.338 70.8408C209.338 71.5814 209.938 72.1819 210.679 72.1819Z" fill="white"/>
<path d="M75.233 66.482C76.1588 66.482 76.9093 65.7315 76.9093 64.8057C76.9093 63.8799 76.1588 63.1294 75.233 63.1294C74.3072 63.1294 73.5566 63.8799 73.5566 64.8057C73.5566 65.7315 74.3072 66.482 75.233 66.482Z" fill="white"/>
<path d="M275.049 115.096C275.975 115.096 276.726 114.345 276.726 113.419C276.726 112.493 275.975 111.743 275.049 111.743C274.124 111.743 273.373 112.493 273.373 113.419C273.373 114.345 274.124 115.096 275.049 115.096Z" fill="white"/>
<path d="M293.824 137.558L275.049 113.419L281.419 92.633L260.968 87.2688" stroke="white" stroke-width="1.00579" stroke-miterlimit="10"/>
<path d="M145.47 88.7439L153.014 113.419" stroke="white" stroke-width="1.00579" stroke-linecap="round" stroke-linejoin="round"/>
<path d="M258.99 69.5333L277.832 47.1042L300.227 65.946L281.419 88.3415L258.99 69.5333Z" fill="url(#paint0_linear)" stroke="url(#paint1_linear)" stroke-width="1.67631" stroke-miterlimit="10"/>
<path d="M253.458 73.1535L257.582 68.2251L281.822 88.3408L277.698 93.3027L253.458 73.1535Z" fill="url(#paint2_linear)" stroke="url(#paint3_linear)" stroke-width="0.335262" stroke-miterlimit="10"/>
<path d="M286.314 69.03C284.739 69.03 265.662 74.3942 265.662 74.3942L280.447 86.8995L283.062 80.3954C283.062 80.4289 286.784 69.03 286.314 69.03Z" fill="white"/>
<path d="M278.77 44.1868H249.334V73.6228H278.77V44.1868Z" fill="url(#paint4_linear)" stroke="url(#paint5_linear)" stroke-width="0.335262" stroke-miterlimit="10"/>
<path d="M278.536 43.9524H249.1V73.3884H278.536V43.9524Z" stroke="url(#paint6_linear)" stroke-width="1.67631" stroke-miterlimit="10"/>
<path d="M278.871 73.4558H248.765V80.0269H278.871V73.4558Z" fill="url(#paint7_linear)"/>
<path d="M265.528 72.8518L273.876 58.8713L278.201 64.9396V73.1535H274.815L265.528 72.8518Z" fill="white"/>
<path d="M257.582 73.0534L267.472 59.8105L275.351 73.154L257.582 73.0534Z" fill="white"/>
<path d="M258.353 49.6182C259.66 49.6182 260.7 50.6575 260.7 51.965C260.7 53.2725 259.66 54.3118 258.353 54.3118C257.045 54.3118 256.006 53.2725 256.006 51.965C255.973 50.691 257.045 49.6182 258.353 49.6182Z" fill="white"/>
<path d="M74.9309 110.636L125.22 108.557L132.697 73.4888L81.6026 73.9246L73.9922 110.602" fill="url(#paint8_linear)"/>
<path d="M74.9309 110.636L125.22 108.557L132.697 73.4888L81.6026 73.9246L73.9922 110.602" stroke="url(#paint9_linear)" stroke-width="0.335262" stroke-miterlimit="10"/>
<path d="M103.965 96.3538C105.65 96.3538 107.016 94.9128 107.016 93.1353C107.016 91.3577 105.65 89.9167 103.965 89.9167C102.28 89.9167 100.914 91.3577 100.914 93.1353C100.914 94.9128 102.28 96.3538 103.965 96.3538Z" fill="white"/>
<path d="M74.4617 108.02L47.0037 107.987C46.8361 107.987 46.702 108.087 46.6349 108.255L46.2661 109.898C46.2326 110.099 46.3332 110.267 46.5343 110.3C46.5679 110.3 46.5679 110.3 46.6014 110.3L73.9923 110.568C74.1599 110.568 74.294 110.468 74.3611 110.3L74.8305 108.423C74.864 108.221 74.7634 108.02 74.5623 108.02C74.5287 108.02 74.4952 108.02 74.4617 108.02Z" fill="url(#paint10_linear)" stroke="url(#paint11_linear)" stroke-width="0.335262" stroke-miterlimit="10"/>
<path d="M80.7646 72.9523L131.859 72.5835C131.926 72.5835 131.993 72.617 132.06 72.6841L132.73 73.4887L81.804 73.9245C81.7034 73.9245 81.6028 73.9916 81.5693 74.1257L74.9311 110.435C74.9311 110.535 74.797 110.636 74.6964 110.636H74.2606C74.1265 110.636 74.0259 110.535 74.0259 110.401C74.0259 110.401 74.0259 110.401 74.0259 110.368L80.3623 73.3546C80.3623 73.1199 80.5635 72.9523 80.7646 72.9523Z" fill="url(#paint12_linear)"/>
<path d="M200.923 157.372C200.923 157.372 197.704 145.672 184.528 144.934C171.352 144.196 170.883 144.498 168.503 144.833C167.128 145.001 166.323 146.443 168.503 147.482C170.715 148.555 170.145 149.36 173.23 148.79C176.314 148.22 178.359 151.371 180.136 151.539C181.913 151.706 183.221 151.338 188.25 151.136C192.843 150.935 198.307 153.986 199.112 155.629C199.917 157.272 203.873 155.998 203.873 155.998L200.923 157.372Z" fill="url(#paint13_linear)"/>
<path d="M199.816 156.065C199.816 156.065 197.704 144.901 186.003 143.962C174.303 143.023 171.151 144.632 169.039 144.834C167.832 144.968 171.285 144.867 173.23 145.873C175.174 146.879 174.705 146.678 177.421 146.812C180.572 146.979 182.248 147.817 183.824 147.382C186.137 146.778 186.573 149.259 191.032 149.158C195.055 149.058 197.436 152.88 198.173 154.389C198.911 155.897 202.398 154.858 202.398 154.858L199.816 156.065Z" fill="url(#paint14_linear)"/>
<path d="M208.298 150.198L208.868 148.723C209.136 148.018 209.572 147.415 210.142 146.912C212.958 144.498 221.541 136.452 222.044 126.763C222.044 126.696 221.977 126.595 221.876 126.595H221.843C221.809 126.595 221.809 126.595 221.776 126.595C220.334 127.165 213.059 130.518 207.393 143.392C207.292 143.593 207.192 143.861 207.158 144.096C207.091 144.532 206.957 145.303 206.924 145.705C206.89 146.275 207.762 146.778 207.393 147.75C207.024 148.723 206.387 151.069 206.387 151.069L207.996 151.371L208.298 150.198Z" fill="url(#paint15_linear)"/>
<path d="M202.498 152.175C202.498 152.175 193.312 126.092 182.014 121.968C171.621 118.179 174.671 124.784 175.241 125.89C175.275 125.991 175.375 126.058 175.442 126.125C178.56 128.405 180.84 131.623 181.88 135.345C182.885 139.267 187.78 136.317 189.926 139.636C192.072 142.955 196.463 147.515 197.503 150.096C198.509 152.678 199.682 155.125 199.682 155.125L202.498 153.851V152.175Z" fill="url(#paint16_linear)"/>
<path d="M202.498 152.277C202.498 152.209 202.464 152.142 202.464 152.075C201.861 150.366 192.943 125.958 182.013 121.969C171.687 118.18 174.671 124.684 175.275 125.824C175.342 125.958 175.476 126.059 175.61 126.126C176.482 126.629 180.304 128.775 182.148 127.4C187.244 123.712 185.567 132.798 190.328 134.943C194.116 136.62 198.039 146.778 199.078 149.393C199.648 150.868 200.084 152.377 200.386 153.919C200.486 154.322 200.889 154.523 201.257 154.422C201.291 154.422 201.291 154.422 201.325 154.389C201.392 154.355 201.425 154.355 201.459 154.355L201.962 154.12C202.263 153.986 202.464 153.718 202.464 153.383L202.498 152.277Z" fill="url(#paint17_linear)"/>
<path d="M205.918 152.41C205.918 152.41 203.102 145.336 205.08 139.201C205.65 137.525 206.689 136.05 208.064 134.943C209.137 134.105 210.612 132.194 210.779 128.171C210.779 128.171 211.819 122.069 214.367 119.119C216.915 116.168 213.629 117.577 213.629 117.577C213.629 117.577 205.248 123.779 201.962 132.026C201.761 132.529 201.526 133.066 201.224 133.535C200.185 135.312 197.872 141.313 203.605 152.746L205.918 152.41Z" fill="url(#paint18_linear)"/>
<path d="M213.663 147.985C213.663 147.985 213.394 147.08 212.321 147.65C211.383 148.153 195.055 155.897 195.055 155.897C195.055 155.897 194.284 156.266 194.62 156.802C194.955 157.339 203.94 169.71 204.342 169.878C204.51 170.012 204.745 170.045 204.979 170.012C205.314 169.945 216.713 164.379 216.713 164.379C216.982 164.212 217.049 163.91 216.948 163.608C216.915 163.642 213.763 148.153 213.663 147.985Z" fill="url(#paint19_linear)"/>
</g>
<defs>
<linearGradient id="paint0_linear" x1="283.093" y1="88.0546" x2="276.127" y2="47.407" gradientUnits="userSpaceOnUse">
<stop stop-color="#21C2C1"/>
<stop offset="1" stop-color="#84F599"/>
</linearGradient>
<linearGradient id="paint1_linear" x1="283.328" y1="89.4323" x2="275.963" y2="46.4529" gradientUnits="userSpaceOnUse">
<stop stop-color="#21C2C1"/>
<stop offset="1" stop-color="#84F599"/>
</linearGradient>
<linearGradient id="paint2_linear" x1="253.498" y1="80.8213" x2="281.782" y2="80.6891" gradientUnits="userSpaceOnUse">
<stop stop-color="#93FD93"/>
<stop offset="1" stop-color="#21C2C1"/>
</linearGradient>
<linearGradient id="paint3_linear" x1="253.262" y1="80.8225" x2="282.018" y2="80.6881" gradientUnits="userSpaceOnUse">
<stop stop-color="#21C2C1"/>
<stop offset="1" stop-color="#84F599"/>
</linearGradient>
<linearGradient id="paint4_linear" x1="249.337" y1="58.9029" x2="278.775" y2="58.9029" gradientUnits="userSpaceOnUse">
<stop stop-color="#21C2C1"/>
<stop offset="1" stop-color="#84F599"/>
</linearGradient>
<linearGradient id="paint5_linear" x1="249.169" y1="58.9029" x2="278.942" y2="58.9029" gradientUnits="userSpaceOnUse">
<stop stop-color="#21C2C1"/>
<stop offset="1" stop-color="#84F599"/>
</linearGradient>
<linearGradient id="paint6_linear" x1="248.266" y1="58.6839" x2="279.38" y2="58.6839" gradientUnits="userSpaceOnUse">
<stop stop-color="#21C2C1"/>
<stop offset="1" stop-color="#84F599"/>
</linearGradient>
<linearGradient id="paint7_linear" x1="248.761" y1="76.754" x2="278.884" y2="76.754" gradientUnits="userSpaceOnUse">
<stop stop-color="#93FD93"/>
<stop offset="1" stop-color="#21C2C1"/>
</linearGradient>
<linearGradient id="paint8_linear" x1="73.9845" y1="92.0562" x2="132.707" y2="92.0562" gradientUnits="userSpaceOnUse">
<stop stop-color="#21C2C1"/>
<stop offset="1" stop-color="#84F599"/>
</linearGradient>
<linearGradient id="paint9_linear" x1="73.8204" y1="92.0553" x2="132.914" y2="92.0553" gradientUnits="userSpaceOnUse">
<stop stop-color="#21C2C1"/>
<stop offset="1" stop-color="#84F599"/>
</linearGradient>
<linearGradient id="paint10_linear" x1="46.2602" y1="109.311" x2="74.8312" y2="109.311" gradientUnits="userSpaceOnUse">
<stop stop-color="#21C2C1"/>
<stop offset="1" stop-color="#84F599"/>
</linearGradient>
<linearGradient id="paint11_linear" x1="46.0925" y1="109.311" x2="74.9988" y2="109.311" gradientUnits="userSpaceOnUse">
<stop stop-color="#21C2C1"/>
<stop offset="1" stop-color="#84F599"/>
</linearGradient>
<linearGradient id="paint12_linear" x1="74.0007" y1="91.5991" x2="132.723" y2="91.5991" gradientUnits="userSpaceOnUse">
<stop stop-color="#93FD93"/>
<stop offset="1" stop-color="#21C2C1"/>
</linearGradient>
<linearGradient id="paint13_linear" x1="172.374" y1="157.091" x2="198.324" y2="144.565" gradientUnits="userSpaceOnUse">
<stop stop-color="#93FD93"/>
<stop offset="0.51" stop-color="#21C2C1"/>
<stop offset="1" stop-color="#84F599"/>
</linearGradient>
<linearGradient id="paint14_linear" x1="178.141" y1="144.202" x2="201.612" y2="155.163" gradientUnits="userSpaceOnUse">
<stop stop-color="#93FD93"/>
<stop offset="0.51" stop-color="#21C2C1"/>
<stop offset="1" stop-color="#84F599"/>
</linearGradient>
<linearGradient id="paint15_linear" x1="204.987" y1="156.449" x2="217.687" y2="130.98" gradientUnits="userSpaceOnUse">
<stop stop-color="#93FD93"/>
<stop offset="0.51" stop-color="#21C2C1"/>
<stop offset="1" stop-color="#84F599"/>
</linearGradient>
<linearGradient id="paint16_linear" x1="206.238" y1="146.023" x2="178.188" y2="132.385" gradientUnits="userSpaceOnUse">
<stop stop-color="#93FD93"/>
<stop offset="0.51" stop-color="#21C2C1"/>
<stop offset="1" stop-color="#84F599"/>
</linearGradient>
<linearGradient id="paint17_linear" x1="182.454" y1="140.662" x2="194.705" y2="134.749" gradientUnits="userSpaceOnUse">
<stop stop-color="#93FD93"/>
<stop offset="0.51" stop-color="#21C2C1"/>
<stop offset="1" stop-color="#84F599"/>
</linearGradient>
<linearGradient id="paint18_linear" x1="203.315" y1="155.27" x2="207.322" y2="129.674" gradientUnits="userSpaceOnUse">
<stop stop-color="#93FD93"/>
<stop offset="0.51" stop-color="#21C2C1"/>
<stop offset="1" stop-color="#84F599"/>
</linearGradient>
<linearGradient id="paint19_linear" x1="198.059" y1="163.922" x2="216.966" y2="154.797" gradientUnits="userSpaceOnUse">
<stop stop-color="#F8C547"/>
<stop offset="1" stop-color="#F71D69"/>
</linearGradient>
<clipPath id="clip0">
<rect width="365" height="203.571" fill="white"/>
</clipPath>
</defs>
</svg>
