<svg width="365" height="216" viewBox="0 0 365 216" fill="none" xmlns="http://www.w3.org/2000/svg">
<g clip-path="url(#clip0)">
<path d="M21.0146 211.982C21.0146 211.982 24.075 169.137 48.0479 173.388C71.8848 177.604 69.1304 199.231 81.3719 196.51C93.6134 193.79 94.5995 164.615 99.3941 129.862C103.543 99.7007 120.069 108.95 123.163 118.675C125.747 126.836 126.767 152.475 136.629 154.175C146.49 155.875 149.89 136.493 150.57 126.972C151.25 117.451 154.651 78.6862 167.062 78.1761C178.794 77.7001 183.894 95.0082 183.894 127.992C183.894 160.976 185.254 182.399 190.695 191.24C196.136 200.081 203.277 197.701 205.487 196.51C208.241 195.014 216.538 181.039 218.578 146.354C220.619 111.67 234.22 116.771 237.281 121.871C240.341 126.972 248.672 155.025 258.873 154.345C269.075 153.665 271.965 147.034 273.665 131.393C275.365 115.751 277.882 77.02 290.837 77.496C304.269 78.0061 309.641 139.247 309.437 157.678C309.165 180.903 326.541 208.412 337.423 208.412" fill="url(#paint0_linear)"/>
<path d="M21.0146 211.982C21.0146 211.982 24.075 169.137 48.0479 173.388C71.8848 177.604 69.1304 199.231 81.3719 196.51C93.6134 193.79 94.5995 164.615 99.3941 129.862C103.543 99.7007 120.069 108.95 123.163 118.675C125.747 126.836 126.767 152.475 136.629 154.175C146.49 155.875 149.89 136.493 150.57 126.972C151.25 117.451 154.651 78.6862 167.062 78.1761C178.794 77.7001 183.894 95.0082 183.894 127.992C183.894 160.976 185.254 182.399 190.695 191.24C196.136 200.081 203.277 197.701 205.487 196.51C208.241 195.014 216.538 181.039 218.578 146.354C220.619 111.67 234.22 116.771 237.281 121.871C240.341 126.972 248.672 155.025 258.873 154.345C269.075 153.665 271.965 147.034 273.665 131.393C275.365 115.751 277.882 77.02 290.837 77.496C304.269 78.0061 309.641 139.247 309.437 157.678C309.165 180.903 326.541 208.412 337.423 208.412" stroke="#BAC6F2" stroke-width="1.7002" stroke-miterlimit="10"/>
<path d="M80.5216 200.76C82.963 200.76 84.9421 198.781 84.9421 196.34C84.9421 193.899 82.963 191.919 80.5216 191.919C78.0802 191.919 76.1011 193.899 76.1011 196.34C76.1011 198.781 78.0802 200.76 80.5216 200.76Z" fill="#BAC6F2"/>
<path d="M20.6744 215.961C23.1158 215.961 25.095 213.982 25.095 211.541C25.095 209.099 23.1158 207.12 20.6744 207.12C18.233 207.12 16.2539 209.099 16.2539 211.541C16.2539 213.982 18.233 215.961 20.6744 215.961Z" fill="#BAC6F2"/>
<path d="M139.349 157.914C141.79 157.914 143.769 155.935 143.769 153.494C143.769 151.052 141.79 149.073 139.349 149.073C136.907 149.073 134.928 151.052 134.928 153.494C134.928 155.935 136.907 157.914 139.349 157.914Z" fill="#BAC6F2"/>
<path d="M112.146 114.085C114.587 114.085 116.566 112.106 116.566 109.664C116.566 107.223 114.587 105.244 112.146 105.244C109.704 105.244 107.725 107.223 107.725 109.664C107.725 112.106 109.704 114.085 112.146 114.085Z" fill="#BAC6F2"/>
<path d="M168.66 83.0391C171.102 83.0391 173.081 81.0599 173.081 78.6185C173.081 76.1771 171.102 74.198 168.66 74.198C166.219 74.198 164.24 76.1771 164.24 78.6185C164.24 81.0599 166.219 83.0391 168.66 83.0391Z" fill="#BAC6F2"/>
<path d="M231.5 123.572C233.942 123.572 235.921 121.592 235.921 119.151C235.921 116.71 233.942 114.73 231.5 114.73C229.059 114.73 227.08 116.71 227.08 119.151C227.08 121.592 229.059 123.572 231.5 123.572Z" fill="#BAC6F2"/>
<path d="M261.695 158.662C264.137 158.662 266.116 156.683 266.116 154.242C266.116 151.8 264.137 149.821 261.695 149.821C259.254 149.821 257.275 151.8 257.275 154.242C257.275 156.683 259.254 158.662 261.695 158.662Z" fill="#BAC6F2"/>
<path d="M290.055 82.563C292.496 82.563 294.475 80.5838 294.475 78.1425C294.475 75.7011 292.496 73.7219 290.055 73.7219C287.613 73.7219 285.634 75.7011 285.634 78.1425C285.634 80.5838 287.613 82.563 290.055 82.563Z" fill="#BAC6F2"/>
<path d="M337.287 213.206C339.728 213.206 341.707 211.227 341.707 208.786C341.707 206.344 339.728 204.365 337.287 204.365C334.845 204.365 332.866 206.344 332.866 208.786C332.866 211.227 334.845 213.206 337.287 213.206Z" fill="#BAC6F2"/>
<path d="M200.556 201.1C202.998 201.1 204.977 199.121 204.977 196.68C204.977 194.238 202.998 192.259 200.556 192.259C198.115 192.259 196.136 194.238 196.136 196.68C196.136 199.121 198.115 201.1 200.556 201.1Z" fill="#BAC6F2"/>
<path d="M70.9325 77.7676C79.9281 77.7676 87.2205 70.4752 87.2205 61.4796C87.2205 52.484 79.9281 45.1917 70.9325 45.1917C61.9369 45.1917 54.6445 52.484 54.6445 61.4796C54.6445 70.4752 61.9369 77.7676 70.9325 77.7676Z" fill="white"/>
<path d="M98.8025 64.5554C99.8435 58.1414 95.4878 52.0979 89.0737 51.0569C82.6597 50.016 76.6162 54.3717 75.5752 60.7858C74.5343 67.1998 78.89 73.2433 85.3041 74.2842C91.7181 75.3252 97.7616 70.9695 98.8025 64.5554Z" fill="white"/>
<path d="M264.314 55.291C273.309 55.291 280.602 47.9986 280.602 39.003C280.602 30.0075 273.309 22.7151 264.314 22.7151C255.318 22.7151 248.026 30.0075 248.026 39.003C248.026 47.9986 255.318 55.291 264.314 55.291Z" fill="white"/>
<path d="M280.602 51.9237C287.1 51.9237 292.367 46.6561 292.367 40.1582C292.367 33.6604 287.1 28.3928 280.602 28.3928C274.104 28.3928 268.836 33.6604 268.836 40.1582C268.836 46.6561 274.104 51.9237 280.602 51.9237Z" fill="white"/>
<path d="M319.299 113.949L327.392 102.388C328.276 100.824 330.758 100.96 331.948 102.286L339.905 113.167C341.537 115.003 340.687 118.404 338.239 118.438L322.155 118.71C320.387 118.744 318.925 117.316 318.925 115.547C318.891 115.003 319.027 114.459 319.299 113.949Z" fill="#BAC6F2"/>
<path d="M30.9439 122.007L22.8509 133.534C21.9668 135.098 19.4845 134.962 18.2944 133.602L10.3714 122.687C8.73925 120.85 9.62336 117.45 12.0716 117.416L28.1556 117.178C29.9238 117.178 31.386 118.572 31.386 120.34C31.352 120.952 31.216 121.53 30.9439 122.007Z" fill="#BAC6F2"/>
<path d="M43.1851 198.244L42.097 198.21L36.4863 198.278C36.4863 198.278 35.2621 204.059 34.5821 206.439C34.548 206.575 34.412 206.983 34.344 207.29C34.242 207.698 34.208 208.14 34.208 208.548C34.344 210.724 35.1261 212.56 37.0984 213.546C39.2406 214.634 40.8728 215.621 43.1511 213.546C45.4294 211.472 45.7354 210.146 44.8513 206.541C44.0352 202.937 43.7292 198.346 43.1851 198.244Z" fill="#4B44BE"/>
<path d="M66.6821 205.421C62.8057 204.197 60.2214 198.926 60.2214 198.926L53.6246 198.552C53.6246 198.552 53.2505 203.891 53.0805 206.611C52.8425 210.216 53.4546 211.814 55.8008 211.61C58.9292 211.372 71.6127 212.494 73.619 211.236C76.2713 209.536 70.2866 206.543 66.6821 205.421Z" fill="#4B44BE"/>
<path d="M27.0332 103.339V111.227L36.5884 198.312H43.3552C43.3552 198.312 45.7014 138.601 45.7014 136.527C45.7014 134.452 46.3135 127.957 46.3135 127.957C46.3135 127.957 54.8146 152.474 54.9506 154.515C55.0866 156.555 53.5564 198.788 53.5564 198.788L60.3232 199.06C60.3232 199.06 66.2399 170.463 66.2399 167.776C66.2399 165.09 68.2462 151.012 67.9401 148.326C67.6341 145.64 62.6355 103.543 62.6355 103.543L52.2642 103.271L27.0332 103.339Z" fill="url(#paint1_linear)"/>
<path d="M70.8303 94.1921L70.7283 94.0561C70.7963 94.1581 70.7963 94.2261 70.8303 94.1921ZM51.0059 86.5412L47.2315 88.1054L47.0275 93.342L51.21 95.0082C51.21 94.9742 55.7665 94.8382 55.7665 94.8042C55.8005 94.6002 57.5687 94.6682 58.3848 95.1782L72.5305 90.3157L73.0406 86.9152C73.0406 86.9152 74.0947 91.1657 69.3341 82.5967L51.0059 86.5412ZM67.906 69.3011L67.5999 67.6009L66.8858 67.4649L67.906 69.3011ZM41.7568 23.8376C40.0226 24.5517 39.1725 27.102 39.1725 27.102C39.1725 27.102 38.3224 26.592 38.3224 28.0201C38.3224 29.4483 39.0365 32.7127 39.5466 33.5288C40.4307 34.923 41.2468 36.3851 41.9948 37.8813C42.6749 39.3775 42.4369 42.4379 41.7228 42.8799C41.0087 43.322 28.1552 54.8494 28.1552 54.8494L17.5459 87.3913V88.6834L19.1781 89.2615L20.8443 90.6897C20.9803 90.7237 23.1226 91.8798 23.4286 92.0839C25.0948 92.934 26.897 93.546 28.7332 93.9881C29.9234 94.2261 35.262 94.1241 35.262 94.1241L40.6347 93.9881L39.7166 87.1533L31.7596 87.0513L20.8783 86.5072L31.8956 61.1741L66.6478 67.3969C60.4591 56.2435 53.5222 43.662 52.9102 42.3699C52.4001 41.2817 52.9442 38.6974 53.2502 37.3713C53.5222 36.1471 54.1343 34.6509 54.6784 34.1749C55.2224 33.6988 56.2766 31.7266 56.2766 30.8765C56.2766 29.9924 56.5146 26.626 55.8005 27.3401C55.5965 27.5441 54.7464 26.2519 54.4403 24.9598C53.9643 23.0895 52.6721 21.7634 51.176 20.5732C51.176 20.5732 43.525 23.0895 41.8248 23.8036" fill="url(#paint2_linear)"/>
<path d="M28.4615 47.9119C26.7953 49.068 25.2311 50.5982 24.653 52.5704C24.0749 54.5427 20.0285 69.9805 19.4844 71.9188C18.1582 76.6793 17.3761 78.0735 15.8119 83.6842C13.8737 90.587 18.2942 91.6411 22.8168 92.6613C27.5094 93.7154 27.5434 94.1574 28.6315 94.1574C28.8015 94.1574 34.3782 95.3136 34.5482 92.1512C34.6842 90.179 34.3102 87.0166 33.5621 87.1186C31.8619 87.3566 26.3192 85.8944 26.0472 85.7244C25.6731 85.4864 27.2373 81.1679 28.1554 78.4816C28.8015 76.5093 31.3518 68.2803 31.9299 66.7501C32.2359 65.9 30.5017 74.7411 29.4476 83.3781C29.4136 83.7182 29.0055 87.0846 29.1075 87.0846C30.3657 87.0846 33.8341 87.1526 34.8882 87.2546C39.7508 87.8327 40.6689 90.145 40.3969 92.0152C39.8528 95.2456 28.0194 93.7494 28.0874 94.1914C28.0874 94.1914 26.0472 103.373 27.2033 103.951C28.1894 104.461 41.451 109.969 44.2734 111.057C44.5794 111.193 44.9195 111.023 45.0555 110.683C45.0555 110.683 45.0555 110.683 45.0555 110.649L46.8577 105.481C46.8917 105.413 46.9597 105.379 46.9937 105.413C47.0277 105.413 47.0617 105.447 47.0617 105.481L48.7619 111.125C48.7959 111.261 48.8979 111.398 49.0339 111.466H49.782L64.5398 108.269C64.5398 108.269 64.4718 102.454 64.4378 95.0075C64.4378 94.2595 64.3018 91.5051 63.7917 92.0152C63.2477 92.5252 50.9382 94.1574 49.578 93.5794C46.7217 92.3892 47.4698 89.3969 48.4559 88.1727C49.612 86.7785 64.1318 86.0645 64.1998 85.0103C64.4378 80.4538 64.0638 68.4503 63.8257 69.9125C63.4517 72.1568 54.9847 84.4663 54.9847 86.6085C54.9847 88.7508 54.8487 94.1574 54.8487 94.1574L68.8243 93.0693C68.8243 93.0693 73.5169 91.4371 73.9249 88.7508C74.333 86.0645 73.8229 84.8403 73.6529 80.8278C73.5169 78.2775 69.9465 62.9417 68.8923 58.5892C68.7563 57.9431 68.6543 57.263 68.5863 56.6169C68.4503 54.8147 67.7362 50.5982 63.8597 48.796C59.0652 46.5177 55.2907 44.7155 54.3386 44.7155C53.4545 44.7155 50.9722 50.1221 49.68 51.6523C49.102 52.3324 49.238 52.6724 48.4899 53.6926C48.1158 54.2366 47.3677 54.3386 46.8237 53.9646C46.6877 53.8626 46.6197 53.7606 46.5176 53.6246C46.1096 53.0125 45.7356 52.3664 45.3955 51.6863C44.8174 50.5302 40.3969 44.0354 40.3969 44.0354C40.3969 44.0354 30.1277 46.7217 28.4615 47.9119Z" fill="url(#paint3_linear)"/>
<path d="M51.1764 20.6412C51.1764 20.6412 41.7573 24.1436 41.0772 24.6536C40.4311 25.1637 39.139 27.1019 39.139 27.1019C39.139 27.1019 38.4929 26.7279 38.3229 27.748C38.3229 27.748 37.3708 25.7758 37.2347 24.6536C37.0987 23.5315 37.2348 20.6752 39.037 18.8049C40.8392 16.9007 44.4776 14.4184 46.7219 14.7584C48.9662 15.0985 49.9183 15.3705 51.3464 16.7647C52.7746 18.1589 53.9648 18.6009 54.3728 18.8049C54.7809 19.009 56.4131 20.1991 56.6851 22.3754C56.9571 24.5516 56.209 28.9382 56.209 28.9382C56.209 28.9382 56.4131 27.2379 55.733 27.782C55.2569 28.1561 54.5768 26.5919 54.3388 25.6398C54.1008 24.7216 51.6865 20.8792 51.1764 20.6412Z" fill="url(#paint4_linear)"/>
<g opacity="0.07">
<g opacity="0.07">
<g opacity="0.07">
<g opacity="0.07">
<g opacity="0.07">
<path opacity="0.07" d="M54.3385 44.6488C54.2705 44.4788 55.3586 45.2949 54.1005 44.3768C52.3323 43.0846 53.1824 37.814 53.1824 37.814C52.5363 39.2081 51.3802 40.2623 49.986 40.8063C47.7417 41.6564 47.0276 41.0104 50.5301 43.0166C53.9645 44.9888 52.1963 45.7029 51.9242 48.2872" fill="black"/>
</g>
</g>
</g>
</g>
</g>
<g opacity="0.07">
<g opacity="0.07">
<g opacity="0.07">
<g opacity="0.07">
<g opacity="0.07">
<path opacity="0.07" d="M61.2414 63.3502L65.934 81.1003C65.934 81.1003 65.9 84.2627 64.9819 84.7388C64.0638 85.2148 61.1054 85.5209 60.4253 85.8269C59.7452 86.1329 52.5704 87.6291 54.4066 85.1128C54.8146 84.5348 64.5398 81.1343 60.1873 77.5639C55.8348 73.9935 56.6169 69.0289 58.7251 65.6285C60.8334 62.1941 60.3913 59.3037 60.3913 59.3037L61.2414 63.3502Z" fill="black"/>
</g>
</g>
</g>
</g>
</g>
<g opacity="0.07">
<g opacity="0.07">
<g opacity="0.07">
<g opacity="0.07">
<g opacity="0.07">
<path opacity="0.07" d="M41.383 110.105C41.383 110.105 37.3366 131.596 39.4448 140.199C42.6412 153.222 38.0506 170.836 38.0506 179.303C38.0506 184.812 40.2269 199.978 40.3629 206.167C40.3969 208.037 41.7571 211.641 40.737 212.457C40.3289 212.831 37.7446 211.981 36.3164 211.301C35.5683 210.927 35.1603 210.145 35.2283 209.363L36.0784 205.691L37.2685 200.828L28.8695 122.245C28.8695 122.245 26.1832 104.732 27.7134 104.664C29.2436 104.596 41.417 110.105 41.383 110.105Z" fill="black"/>
</g>
</g>
</g>
</g>
</g>
<path d="M37.5406 81.2027L53.4205 83.1749C53.7605 83.277 53.9646 83.549 53.9306 83.923L53.4885 98.2728C53.4545 98.7148 53.1825 99.3269 52.7744 99.1909L36.9965 96.1645C36.6905 96.0625 36.4865 95.7905 36.4865 95.4844L36.4185 93.9202L38.1527 93.4782C38.5947 93.3422 39.0368 93.1041 39.3768 92.8321C39.4788 92.7641 39.5128 92.6961 39.5808 92.6281L39.9549 92.084C40.0909 91.948 40.0909 91.71 40.0909 91.5059C40.0229 91.1659 39.9549 90.7239 39.8869 90.4858C39.8529 90.3838 39.8189 90.3158 39.7849 90.2478L39.4108 89.3977C39.2408 89.0236 38.9348 88.7176 38.5267 88.5136L38.2887 88.3776L36.5885 87.4595L36.7245 81.8488C36.7245 81.4747 37.0645 81.1687 37.4386 81.1687C37.4726 81.2027 37.5066 81.2027 37.5406 81.2027Z" fill="white"/>
<path d="M294.884 200.692L290.021 201.815C290.021 201.815 288.831 205.657 288.287 207.731C288.253 207.833 288.151 208.207 288.049 208.445C287.981 208.819 287.947 209.159 287.947 209.533C288.049 211.37 288.763 212.968 290.395 213.784C292.197 214.702 293.625 215.552 295.53 213.784C297.434 212.016 297.774 210.894 296.958 207.833C296.142 204.773 294.884 200.76 294.884 200.692Z" fill="#4B44BE"/>
<path d="M323.175 207.084C319.877 206.064 318.482 201.984 318.482 201.984L311.886 201.644C311.886 201.644 311.75 205.792 311.546 208.037C311.307 211.029 311.886 212.355 313.858 212.185C316.51 211.947 327.391 212.933 329.092 211.845C331.37 210.485 326.269 208.071 323.175 207.084Z" fill="#4B44BE"/>
<path d="M284.682 107.453C284.682 107.453 282.2 110.853 281.418 120C280.635 129.147 282.37 146.557 283.186 149.924C284.002 153.29 287.266 184.71 288.048 187.022C288.83 189.334 289.953 201.848 289.953 201.848L295.189 201.984C295.189 201.984 296.753 185.662 296.753 181.344C296.753 177.025 298.93 136.118 298.794 133.126C298.658 130.133 299.338 131.085 299.338 131.085C299.338 131.085 303.928 145.707 305.288 148.156C306.649 150.604 309.097 155.364 309.097 155.364C309.097 155.364 309.641 170.7 310.321 179.575C311.001 188.45 311.681 202.392 311.681 202.392L318.72 202.256C318.72 202.256 320.352 178.895 320.352 173.999C320.352 169.102 321.814 157.303 321.814 155.942C321.814 154.582 317.224 130.711 317.224 130.711L313.994 107.453H284.682Z" fill="url(#paint5_linear)"/>
<path d="M292.979 30.4003C290.565 31.2844 287.504 43.2198 287.504 43.2198L287.47 43.1858L286.144 44.512L286.688 47.0283L289.034 86.371L301.072 83.7867L311.613 72.6334L318.176 75.7277C318.176 75.7277 318.686 90.0095 318.754 90.7916C318.822 91.5737 319.944 113.166 319.944 114.594C319.978 116.125 326.405 122.891 327.493 122.177C330.655 119.967 325.385 115.853 324.127 114.866C323.379 114.288 321.814 94.192 321.678 91.8117C321.576 89.4314 325.351 83.4127 318.788 75.4897C314.027 69.675 311.443 54.8152 307.431 37.8812C305.322 29.0741 304.064 26.4558 301.99 26.4558C300.154 26.4558 297.569 28.7001 292.979 30.4003Z" fill="url(#paint6_linear)"/>
<path d="M290.939 63.9286C290.905 64.0306 286.348 66.1728 284.41 68.5871C282.438 71.0014 280.874 74.4698 280.874 74.4698C280.874 74.4698 277.983 81.2707 276.011 86.3033C274.923 88.9896 271.42 100.041 275.637 100.449C279.615 100.823 288.457 91.4379 289.817 89.6697L291.347 86.2693C291.449 85.8272 288.967 81.2367 289.069 80.8286C289.137 80.1485 294.917 76.8161 295.801 78.7884C296.107 79.4684 296.89 81.3727 297.094 81.9507C297.638 83.3789 289.273 86.2013 289.273 87.4934C289.273 89.0916 288.559 94.9403 287.436 97.8307C286.28 100.721 284.546 107.556 284.546 107.556L314.028 107.624C314.028 107.624 313.041 94.4983 313.45 90.1457C313.45 90.1457 314.708 75.864 315.456 74.4358C316.204 73.0077 317.462 92.084 317.258 95.9944C317.122 98.7148 319.57 115.139 320.284 115.717C321.44 116.601 324.127 114.833 324.127 114.833C324.127 114.833 324.025 96.8445 323.889 93.8522C323.753 90.8598 323.957 66.6489 320.012 62.2964C316.068 57.9438 314.98 58.0459 311.715 59.202C308.417 60.3581 306.819 61.4463 302.33 62.1944C299.61 62.6704 296.754 62.2964 294.203 61.2082C294.917 58.6579 293.421 62.9765 293.625 61.7863" fill="url(#paint7_linear)"/>
<path d="M295.325 23.6675C295.325 23.6675 289.443 23.9055 287.776 29.6182C286.11 35.3309 285.872 43.3899 285.804 44.648C285.736 45.9742 286.416 54.9852 285.702 57.5016C285.022 59.7118 283.152 63.8263 281.996 66.6487C281.554 67.7708 281.214 68.9269 281.01 70.1171L280.874 71.0692C281.18 72.0553 282.234 72.6674 283.288 72.3273C283.356 72.2933 283.424 72.2933 283.458 72.2593C284.036 71.9873 284.614 71.7153 285.158 71.3752C286.926 70.2871 289.171 67.4648 290.973 66.5806C292.843 65.6625 294.985 61.378 295.291 61.038C295.597 60.6979 295.461 59.6438 295.529 58.5897C295.699 53.217 294.713 48.3204 293.455 45.7361C292.197 43.1518 289.307 38.0852 291.313 35.1609C293.319 32.2365 297.468 29.9242 297.638 29.2441C297.808 28.5301 297.944 32.0665 300.154 33.3246C302.364 34.5828 305.458 37.9492 305.458 38.6973C305.458 39.4454 306.207 41.8257 304.098 46.0082C301.99 50.1907 300.324 55.4953 303.248 59.5078C306.173 63.4863 313.517 69.0289 314.028 70.2871C314.538 71.5452 314.028 77.1219 313.858 80.2503C313.687 83.3787 319.808 74.8776 319.57 70.7971C319.332 66.6827 320.08 64.9144 315.898 58.6917C311.715 52.4349 308.995 41.6556 308.893 39.0373C308.791 36.419 307.533 29.1761 305.016 27.0679C302.874 25.2997 302.398 23.5655 297.91 23.5655C297.059 23.4975 296.175 23.5655 295.325 23.6675Z" fill="url(#paint8_linear)"/>
<g opacity="0.07">
<g opacity="0.07">
<g opacity="0.07">
<g opacity="0.07">
<path opacity="0.07" d="M293.047 78.5833C292.163 78.9574 291.313 79.3654 290.497 79.8415L289.613 80.2835C289.613 80.2835 280.227 90.0767 280.635 89.5667C282.438 87.3224 288.048 75.3529 289.953 72.5646C291.959 69.6743 293.047 70.8304 295.223 78.4813" fill="black"/>
</g>
</g>
</g>
</g>
<g opacity="0.07">
<path opacity="0.07" d="M292.605 201.782C292.639 201.884 292.639 202.02 292.639 202.122C292.673 202.938 292.639 204.978 291.755 206.27C290.633 207.97 293.285 211.711 293.285 212.629C293.285 213.547 292.061 214.397 291.211 214.159C290.361 213.887 286.824 211.915 288.218 207.63C288.762 205.896 289.102 204.366 289.442 203.414C289.612 202.938 289.782 202.462 289.918 201.986C289.952 201.748 289.952 201.544 289.952 201.306C289.918 201 289.918 200.694 289.884 200.354C289.714 198.687 282.676 146.865 282.438 144.859C282.2 143.091 281.179 132.107 281.281 125.681C281.213 125.137 281.213 124.558 281.247 124.048C281.247 123.912 281.315 123.266 281.281 123.028C281.315 122.45 281.349 121.838 281.417 121.26C281.315 120.784 281.383 120.784 281.417 120.002C281.451 119.22 281.417 118.778 281.485 118.302C282.2 113.949 283.764 108.985 284.546 107.59L284.784 106.808C284.784 106.808 286.552 100.246 287.164 99.0214C287.674 97.8992 289.17 92.1185 289 90.8944C288.932 90.2143 291.279 87.63 291.279 87.63L291.755 87.222C291.993 87.188 292.231 87.222 292.469 87.29C292.979 87.528 294.985 85.7598 295.325 86.8819C297.705 94.4648 298.658 97.6612 294.475 102.184C290.293 106.706 294.135 110.719 294.203 113.881C294.373 121.702 290.599 120.852 290.361 125.749C290.123 130.645 291.211 134.148 291.279 136.698C291.449 145.097 291.347 146.729 290.905 150.028C290.463 153.326 288.218 159.549 290.735 171.824C293.251 184.1 292.877 185.188 292.605 192.159C292.367 199.061 292.605 201.782 292.605 201.782Z" fill="black"/>
</g>
<path d="M288.728 75.0811L288.796 75.0471C289.102 74.9111 290.837 74.027 292.061 73.5169C293.421 72.9729 295.087 77.6314 295.495 78.5496C295.529 78.6176 295.529 78.6176 295.223 78.6516C294.237 78.7536 293.217 78.9576 292.265 79.1956C290.871 79.5357 289.272 80.6238 289.204 80.6578C289.136 80.6918 288.728 79.8077 287.912 77.7335C287.742 77.2574 287.334 75.9992 287.674 75.6932L288.728 75.0811Z" fill="#EFEFEF"/>
<path opacity="0.07" d="M299.338 50.3607C300.222 50.7007 301.242 50.4627 301.922 49.7826C303.112 48.5925 301.48 52.707 301.752 53.6251C301.99 54.5432 299.338 50.3607 299.338 50.3607Z" fill="black"/>
<path d="M291.312 85.8946C291.312 85.8946 296.889 82.2222 296.957 82.3922C297.093 82.7322 297.569 84.0584 297.569 84.0584C297.569 84.0584 298.011 84.9085 297.875 85.1805C297.739 85.4526 292.435 87.6968 292.435 87.6968C292.197 87.6628 292.027 87.5608 291.959 87.3568C291.721 86.8807 291.517 86.4047 291.312 85.8946Z" fill="#EFEFEF"/>
</g>
<defs>
<linearGradient id="paint0_linear" x1="179.206" y1="205.47" x2="179.026" y2="51.7311" gradientUnits="userSpaceOnUse">
<stop stop-color="white"/>
<stop offset="1" stop-color="#BAC6F2"/>
</linearGradient>
<linearGradient id="paint1_linear" x1="27.036" y1="151.197" x2="67.9587" y2="151.197" gradientUnits="userSpaceOnUse">
<stop stop-color="#4F68CA"/>
<stop offset="1" stop-color="#5ACEED"/>
</linearGradient>
<linearGradient id="paint2_linear" x1="17.5483" y1="57.8693" x2="73.1011" y2="57.8693" gradientUnits="userSpaceOnUse">
<stop stop-color="#F87B58"/>
<stop offset="0.41" stop-color="#F89453"/>
<stop offset="0.71" stop-color="#F8C548"/>
<stop offset="1" stop-color="#F89C51"/>
</linearGradient>
<linearGradient id="paint3_linear" x1="15.3454" y1="77.6992" x2="74.0648" y2="77.6992" gradientUnits="userSpaceOnUse">
<stop stop-color="#E1A1ED"/>
<stop offset="1" stop-color="#7658F4"/>
</linearGradient>
<linearGradient id="paint4_linear" x1="37.241" y1="21.8109" x2="56.7884" y2="21.8109" gradientUnits="userSpaceOnUse">
<stop stop-color="#5ACEED"/>
<stop offset="0.55" stop-color="#4F68CA"/>
<stop offset="1" stop-color="#5282D3"/>
</linearGradient>
<linearGradient id="paint5_linear" x1="281.229" y1="154.92" x2="321.875" y2="154.92" gradientUnits="userSpaceOnUse">
<stop stop-color="#4F68CA"/>
<stop offset="1" stop-color="#5ACEED"/>
</linearGradient>
<linearGradient id="paint6_linear" x1="286.153" y1="74.3437" x2="328.492" y2="74.3437" gradientUnits="userSpaceOnUse">
<stop stop-color="#F87B58"/>
<stop offset="0.5" stop-color="#F8C548"/>
<stop offset="1" stop-color="#F89C51"/>
</linearGradient>
<linearGradient id="paint7_linear" x1="273.604" y1="87.2721" x2="324.055" y2="87.2721" gradientUnits="userSpaceOnUse">
<stop stop-color="#E1A1ED"/>
<stop offset="1" stop-color="#7658F4"/>
</linearGradient>
<linearGradient id="paint8_linear" x1="280.87" y1="52.1963" x2="319.59" y2="52.1963" gradientUnits="userSpaceOnUse">
<stop stop-color="#4B44BE"/>
<stop offset="1" stop-color="#5BD3EF"/>
</linearGradient>
<clipPath id="clip0">
<rect width="365" height="215.96" fill="white"/>
</clipPath>
</defs>
</svg>
