<svg width="201" height="603" viewBox="0 0 201 603" fill="none" xmlns="http://www.w3.org/2000/svg">
<g clip-path="url(#clip0)">
<path d="M130.201 577.264C127.61 566.385 126.747 552.398 125.02 552.053H123.121L104.817 552.226C104.817 552.226 101.018 569.666 99.1184 576.919C98.9457 577.437 98.6004 578.645 98.255 579.509C97.9097 580.718 97.9097 582.099 97.9097 583.308C98.255 589.87 100.845 595.568 106.716 598.503C113.278 601.784 118.286 604.893 125.02 598.503C131.755 592.114 132.791 588.143 130.201 577.264Z" fill="#4B49BB"/>
<path d="M72.3532 553.78L49.2143 554.989C49.2143 554.989 40.0623 570.875 26.5934 574.674C13.9879 578.3 -6.90623 587.107 2.41841 592.114C9.32554 596.086 53.8766 592.46 64.7553 593.323C72.8712 594.014 75.116 589.006 74.2526 578.127C73.5619 570.012 72.3532 553.78 72.3532 553.78Z" fill="#4B49BB"/>
<path d="M44.5521 264.716C44.5521 264.716 29.011 392.498 27.975 400.787C26.9389 409.075 33.328 451.727 33.328 459.843C33.328 467.959 48.5237 555.161 48.5237 555.161L72.6987 554.125C72.6987 554.125 67.8637 425.825 68.3817 419.609C68.8998 413.392 95.3196 338.968 95.3196 338.968C95.3196 338.968 97.219 358.653 97.219 364.87C97.219 371.086 104.472 552.571 104.472 552.571H125.538L155.412 285.265L154.894 280.084L44.5521 264.716Z" fill="url(#paint0_linear)"/>
<path d="M115.696 17.9585C115.696 17.9585 92.5568 26.9378 87.3764 29.0099C82.1961 31.0821 79.2605 37.4712 79.2605 37.4712C79.2605 37.4712 76.6704 35.9171 76.6704 40.234C76.6704 44.551 78.7425 54.3936 80.4693 56.9838C83.2321 61.3008 85.6496 65.6177 87.8944 70.1074C89.9666 74.597 89.2759 83.9217 87.0311 85.3031C84.7862 86.6845 45.7609 121.911 45.7609 121.911L13.2974 221.892L17.6143 253.492L24.1761 284.574C24.1761 284.574 22.7947 286.819 25.5575 289.409C28.3204 291.999 40.0625 311.339 40.0625 311.339L44.0341 282.847L30.7379 240.541L26.0756 204.969L57.1577 141.424L164.909 160.591L176.651 229.835L154.894 288.891L151.095 317.728L169.399 301.669C170.435 300.806 172.507 296.316 173.543 293.899L184.422 263.162L192.538 214.121C192.538 214.121 124.502 91.5195 121.049 84.267C119.495 80.9861 121.221 73.0429 122.085 69.0713C122.948 65.4451 124.675 60.7827 126.402 59.4013C128.992 56.6385 130.201 52.6669 130.891 49.0406C130.891 46.4504 131.927 36.4351 129.337 38.8526C128.819 39.5433 126.92 36.4351 126.056 32.4635C124.502 26.5924 120.358 21.7574 115.696 17.9585Z" fill="url(#paint1_linear)"/>
<path d="M106.889 117.939C105.163 119.493 102.572 119.321 101.018 117.767C99.8095 115.867 98.6007 113.968 97.7373 112.068C96.0105 108.615 82.7143 89.1021 82.7143 89.1021C82.7143 89.1021 51.1142 97.2179 46.1065 100.499C40.9261 103.952 36.2638 108.615 34.537 114.658C32.8102 120.702 8.46258 191.673 7.25383 195.99C6.04508 200.307 -0.17134 207.214 2.76419 224.655C5.69973 242.095 22.1042 286.819 23.831 287.337C25.5577 287.855 42.9983 279.221 42.9983 279.221C42.9983 279.221 29.184 223.619 29.184 218.093C29.184 212.567 41.6168 196.853 46.6245 186.147C51.6322 175.441 55.2584 166.117 56.9852 161.454C58.712 156.792 42.1349 253.837 42.1349 253.837C42.1349 253.837 41.7895 271.45 45.0704 273.177C48.1786 274.731 85.3045 288.891 93.9384 292.172C94.8018 292.517 95.8379 291.999 96.3559 291.136L101.882 275.422C101.882 275.249 102.054 275.077 102.227 275.249C102.4 275.249 102.4 275.422 102.4 275.422L107.58 292.517C107.753 293.381 108.789 293.899 109.652 293.726L155.412 283.883C155.412 283.883 154.721 199.444 155.585 185.284C156.275 171.47 154.549 163.699 157.139 167.498C159.902 171.642 171.471 209.632 171.471 216.021C171.471 222.41 158.52 278.53 158.52 278.53L175.615 288.028C175.615 288.028 198.754 226.381 199.963 218.266C201.172 210.15 201.69 205.833 197.891 197.717C194.092 189.601 173.025 115.867 173.025 115.867C173.025 115.867 170.953 106.888 155.412 102.226C139.871 97.5633 128.301 90.6562 125.539 90.8288C122.776 91.0015 114.142 107.233 110.343 112.068C108.616 113.968 108.961 114.831 106.889 117.939Z" fill="url(#paint2_linear)"/>
<path d="M115.523 18.1312C115.523 18.1312 89.4488 27.6285 84.0958 31.6001C80.1242 34.5357 79.2608 37.2985 79.2608 37.2985C79.2608 37.2985 76.4979 36.0898 76.6706 40.0614C76.8433 44.033 73.5624 33.845 72.699 30.5641C72.0083 27.2832 71.8356 18.1312 78.9154 11.3968C85.9953 4.66231 93.7658 -0.345368 100.328 -1.11245e-05C106.889 0.345346 112.242 2.24481 117.423 7.25248C122.603 12.2602 123.812 11.9148 124.848 12.4328C125.884 12.9509 131.237 18.6493 131.928 24.8657C132.618 31.0821 130.719 40.2341 130.719 40.2341C130.719 40.2341 129.51 38.8526 128.129 39.8887C126.747 40.9248 126.402 34.0176 121.912 25.5564C118.631 19.34 115.523 18.1312 115.523 18.1312Z" fill="url(#paint3_linear)"/>
<path opacity="0.07" d="M98.9459 325.844C96.0104 334.478 84.4409 351.401 76.843 361.589C69.2452 371.777 45.9336 393.189 47.4877 419.263C49.0418 445.338 64.7556 512.51 64.7556 518.553C64.7556 524.597 58.8845 553.089 54.3948 561.896C49.9052 570.702 47.8331 586.416 50.0779 586.416C54.2222 586.243 58.5391 585.725 62.6834 584.689C66.4823 583.826 70.2813 582.962 73.9075 581.754C75.4616 581.063 75.807 576.055 75.807 576.055C75.9797 573.983 75.6343 571.738 75.1163 569.839C74.0802 566.558 73.2168 563.277 72.6988 559.996C71.8354 535.476 69.5905 478.665 70.1086 474.693C70.972 467.268 64.9282 429.797 70.4539 411.32C75.9797 392.843 98.9459 325.844 98.9459 325.844Z" fill="black"/>
<path opacity="0.07" d="M42.998 279.221L39.0264 309.958C39.0264 309.958 42.998 316.347 44.2067 310.994C45.4155 305.641 53.704 295.625 48.5237 288.373C43.3433 281.12 42.998 279.221 42.998 279.221Z" fill="black"/>
<path opacity="0.07" d="M155.239 287.682L153.858 302.36L152.131 316.52C152.131 316.52 146.26 320.837 146.433 315.311C146.605 309.785 136.59 301.497 144.188 295.971C151.786 290.445 155.239 287.682 155.239 287.682Z" fill="black"/>
<path opacity="0.07" d="M82.5413 89.2748C83.5774 89.1021 77.5336 90.6562 82.8867 88.9294C92.0386 85.9939 88.2397 68.7261 88.2397 68.7261C88.2397 68.7261 89.1031 75.1152 97.737 77.7054C106.371 80.2955 108.616 78.3961 95.6649 84.4398C82.714 90.4836 89.4484 92.5557 90.3118 100.499" fill="black"/>
<path opacity="0.07" d="M56.6398 167.326L42.1348 255.392C42.1348 255.392 42.3074 271.105 45.0703 273.35C47.8332 275.595 57.1578 277.149 59.2299 278.703C61.3021 280.257 83.7503 287.682 77.8792 275.077C76.4978 272.314 46.279 255.392 59.748 237.606C73.2169 219.82 70.7994 195.299 64.4103 178.204C60.6114 168.189 58.7119 157.483 59.2299 146.777L56.6398 167.326Z" fill="black"/>
</g>
<defs>
<linearGradient id="paint0_linear" x1="27.8613" y1="409.939" x2="155.412" y2="409.939" gradientUnits="userSpaceOnUse">
<stop stop-color="#4B45BD"/>
<stop offset="1" stop-color="#58CAEA"/>
</linearGradient>
<linearGradient id="paint1_linear" x1="13.2974" y1="167.843" x2="192.538" y2="167.843" gradientUnits="userSpaceOnUse">
<stop stop-color="#F87B58"/>
<stop offset="0.41" stop-color="#F89453"/>
<stop offset="0.71" stop-color="#F8C548"/>
<stop offset="1" stop-color="#F89C51"/>
</linearGradient>
<linearGradient id="paint2_linear" x1="1.9849" y1="191.43" x2="201.149" y2="191.43" gradientUnits="userSpaceOnUse">
<stop stop-color="#4B45BD"/>
<stop offset="1" stop-color="#58CAEA"/>
</linearGradient>
<linearGradient id="paint3_linear" x1="72.4395" y1="20.6858" x2="132.329" y2="20.6858" gradientUnits="userSpaceOnUse">
<stop stop-color="#FD5D93"/>
<stop offset="1" stop-color="#EC250D"/>
</linearGradient>
<clipPath id="clip0">
<rect width="201" height="602.302" fill="white"/>
</clipPath>
</defs>
</svg>
